<svg id="Слой_1" data-name="Слой 1" xmlns="http://www.w3.org/2000/svg" viewBox="0 0 159.16 153.04"><defs><style>.cls-1{fill:#1d1d1b;}</style></defs><title>import icons fill</title><path class="cls-1" d="M79.58,146.5a70,70,0,1,1,70-70A70.06,70.06,0,0,1,79.58,146.5Zm0-132a62,62,0,0,0,0,124h0a62,62,0,0,0,0-124Z"/><path class="cls-1" d="M90.57,110.32a4,4,0,0,1-2.68-1L54.65,79.19a4,4,0,0,1-1.32-2.87,4.05,4.05,0,0,1,1.19-2.94L87.76,40.53a4,4,0,1,1,5.62,5.69L63.15,76.1l30.11,27.26a4,4,0,0,1-2.69,7Z"/></svg>