<svg id="Слой_1" data-name="Слой 1" xmlns="http://www.w3.org/2000/svg" viewBox="0 0 159.16 153.04"><defs><style>.cls-1{fill:#1d1d1b;}</style></defs><title>import icons fill</title><path class="cls-1" d="M114.06,88.29,94.6,68.82l20.09-20.09a2.06,2.06,0,0,0,.61-1.46,2,2,0,0,0-.61-1.45L93.21,24.34a2.05,2.05,0,0,0-3.51,1.45V63.93L71.53,45.76a2.05,2.05,0,1,0-2.91,2.9L88.78,68.82,69.13,88.48A2.05,2.05,0,0,0,72,91.38L89.7,73.72v37.84A2,2,0,0,0,91,113.47a2.07,2.07,0,0,0,2.26-.48l20.84-21.83A2.05,2.05,0,0,0,114.06,88.29ZM93.81,30.76l16.52,16.51L93.81,63.79Zm0,75.67V73.86l15.92,15.91Z"/><path class="cls-1" d="M93.27.09A46.33,46.33,0,0,0,47,46.36V74.08a2.06,2.06,0,0,0,4.12,0V46.36a42.16,42.16,0,1,1,84.31,0V90.65a42.45,42.45,0,0,1-35.84,41.68,2.06,2.06,0,0,0,.31,4.09l.31,0a46.59,46.59,0,0,0,39.33-45.75V46.36A46.33,46.33,0,0,0,93.27.09Z"/><path class="cls-1" d="M77.65,114.06A2.06,2.06,0,1,0,74.74,117l10.19,10.19a12.7,12.7,0,0,1-18,18L49.62,127.77a12.72,12.72,0,0,1,0-18,12.43,12.43,0,0,1,5.11-3.11,2.06,2.06,0,1,0-1.24-3.92,16.82,16.82,0,0,0-6.78,27.9L64.06,148a16.82,16.82,0,0,0,23.78-23.78Z"/><path class="cls-1" d="M27.44,105.18a12.7,12.7,0,1,1,18-18l17.35,17.35a12.74,12.74,0,0,1,0,18,12.48,12.48,0,0,1-5,3.07,2.06,2.06,0,0,0,.64,4,2,2,0,0,0,.63-.1,16.82,16.82,0,0,0,6.64-27.85L48.31,84.3A16.8,16.8,0,0,0,19.62,96.19a16.66,16.66,0,0,0,4.91,11.89l10.66,10.67a2.06,2.06,0,0,0,2.91-2.91Z"/></svg>