<svg id="Слой_1" data-name="Слой 1" xmlns="http://www.w3.org/2000/svg" viewBox="0 0 159.16 153.04"><defs><style>.cls-1{fill:#1d1d1b;}</style></defs><title>import icons fill</title><path class="cls-1" d="M58.07,112.19a2.06,2.06,0,1,0-2.91,2.91l10.15,10.15a12.7,12.7,0,1,1-18,18L30,125.86a12.7,12.7,0,0,1,5.1-21.07,2.06,2.06,0,1,0-1.24-3.92,16.76,16.76,0,0,0-11.68,16,16.67,16.67,0,0,0,4.91,11.89l17.35,17.35a16.82,16.82,0,0,0,23.78-23.78Z"/><path class="cls-1" d="M7.82,103.27a12.7,12.7,0,0,1,18-18l17.35,17.35a12.73,12.73,0,0,1,0,18,12.48,12.48,0,0,1-5,3.07,2.06,2.06,0,0,0,.63,4,2,2,0,0,0,.64-.1A16.79,16.79,0,0,0,46,99.75L28.69,82.39A16.8,16.8,0,0,0,0,94.28a16.66,16.66,0,0,0,4.91,11.89l10.66,10.67a2.06,2.06,0,0,0,2.91-2.91Z"/><path class="cls-1" d="M144.11,2.11H52.86a15.07,15.07,0,0,0-15,15.05v64a2.06,2.06,0,0,0,4.11,0v-64A11,11,0,0,1,52.86,6.22h53.2c7.44,0,13.49,7.71,13.49,17.19V98L87.28,52.61A2.06,2.06,0,0,0,83.92,55l36,50.63a2.06,2.06,0,0,0,1.67.87,2.3,2.3,0,0,0,.63-.1,2.06,2.06,0,0,0,1.43-2v-81a22.94,22.94,0,0,0-7.24-17.19h27.69a11,11,0,0,1,10.94,10.94V107.3a11,11,0,0,1-10.94,10.94h-53c-7.44,0-13.49-7.71-13.49-17.19V26.25l32.79,47.4a2.06,2.06,0,1,0,3.38-2.34L77.25,18.49a2.06,2.06,0,0,0-3.75,1.17v81.39a22.91,22.91,0,0,0,7.25,17.19H78.64a2.06,2.06,0,1,0,0,4.11h65.47a15.07,15.07,0,0,0,15-15V17.16A15.07,15.07,0,0,0,144.11,2.11Z"/></svg>