<svg id="Слой_1" data-name="Слой 1" xmlns="http://www.w3.org/2000/svg" viewBox="0 0 1002.31 946.16"><defs><style>.cls-1{fill:#1d1d1b;}</style></defs><title>icon_coins_bold</title><path class="cls-1" d="M476.33,247a16.86,16.86,0,0,0,.95,1.84l1,1.59q.88,1.51,1.83,3l19.19,31.64c.37.62.74,1.24,1.12,1.85l.28.46.52.8a98.06,98.06,0,0,0,33,31.5c18.74,11.08,41.1,16.68,65.46,16.68a185.2,185.2,0,0,0,51.11-7.58c42.47-12.21,82.7-38,113.27-72.51,48.2-54.49,62.86-120.34,37.45-168-.17-.35-.36-.7-.56-1-1.36-2.47-2.84-4.91-4.42-7.26L779,51.36q-1.12-1.94-2.32-3.81l-.8-1.32a19.3,19.3,0,0,0-1.28-1.79,98.69,98.69,0,0,0-31-28.57C712.41-2.63,671-5.86,627.11,6.76c-42.47,12.22-82.69,38-113.26,72.52-37.53,42.41-55.12,91.71-48.27,135.25A103.16,103.16,0,0,0,476.33,247Zm62.09-146c26.49-29.93,61.21-52.21,97.76-62.72,35.13-10.1,67.38-8,90.8,5.82A65.69,65.69,0,0,1,748.33,64l2.77,4.56A70.11,70.11,0,0,1,759,92c5.25,33.33-9.86,73.86-40.43,108.4a16.41,16.41,0,1,0,24.58,21.74,221.28,221.28,0,0,0,30.45-43.75c-6.91,19.28-18.54,38.44-34.23,56.17-26.49,29.94-61.21,52.22-97.76,62.73-21.69,6.23-42.27,7.83-60.36,4.88A171.18,171.18,0,0,0,599.15,301a16.41,16.41,0,0,0-3.92-32.58c-25.25,3-47.78-.79-65.17-11.07a65.81,65.81,0,0,1-21.65-20.39l-2.35-3.86A70,70,0,0,1,498,209.43C492.75,176.09,507.86,135.57,538.42,101Z"/><path class="cls-1" d="M315.06,565.18C219.3,535.36,127.82,455.8,92.59,371.7,72.34,323.38,73,280.38,94.49,250.63,115.3,221.8,154.1,208,203.73,211.84c47.57,3.65,100.61,23.41,149.37,55.65,48.45,32,89.45,74.15,115.45,118.61a16.41,16.41,0,0,0,28.33-16.57C437.23,267.54,315,187.46,206.24,179.12c-61.47-4.73-110.6,13.85-138.35,52.3-1.18,1.62-2.29,3.28-3.37,5L21.57,294.83l-.28.4c-1.63,2.37-3.2,4.84-4.67,7.36l-1.19,1.88a17.41,17.41,0,0,0-1.48,3c-19.63,37.8-18.52,87,3.18,138.76,20.21,48.25,57.57,96.52,105.19,135.93C169.14,620.86,224,649.6,276.74,663a16.25,16.25,0,0,0,4.06.51,16.41,16.41,0,0,0,4-32.31C184.56,605.7,84.7,522.55,47.39,433.51,29.24,390.19,28,350.28,43.82,321.15c.16-.29.31-.59.45-.88l.26-.41c.11-.18.23-.37.33-.56l.73-1.2c1.54,21.15,7.13,43.36,16.73,66.28,19.43,46.38,53.4,91.35,98.24,130.06,43.23,37.32,94.63,66.47,144.74,82.07a16.41,16.41,0,1,0,9.76-31.33Z"/><path class="cls-1" d="M354.33,333.36,180.52,244.44a16.4,16.4,0,0,0-23.58,17.7l33,171.88.09.37c0,.13,0,.25.08.37.12.47.25.94.4,1.4,0,0,0,0,0,0s0,.13.07.2c.11.3.22.59.34.88l.18.39q.15.35.33.69c.07.14.14.29.22.43s.24.41.36.61.33.53.5.79l.35.49c.13.18.26.34.4.51l.32.39.43.48.36.38.43.42.46.41.39.34c.29.24.58.46.88.67l.31.21c.22.15.44.3.67.44l.38.21.65.36.4.2.67.3.42.17.17.07,164.48,62.68a16.41,16.41,0,0,0,22-18L363.05,345.34A16.42,16.42,0,0,0,354.33,333.36ZM315.1,350.15,283,387.37l-64.36,21.94L195.5,289Zm-60.71,81.63L297.77,417a16.31,16.31,0,0,0,7.13-4.81L335,377.31l14.77,90.82Z"/><path class="cls-1" d="M993.73,546.82c-.15-.48-.33-1-.52-1.42-1.83-4.93-3.91-9.83-6.19-14.6l-24.57-57.91c-1.52-4.05-3.16-8-5-11.95a179.25,179.25,0,0,0-49.83-63.82c-51.66-42.35-126.16-60-209.79-49.68-82.22,10.15-163.94,46.19-230.08,101.48-39.86,33.32-71.09,70.92-92.83,111.75-21.05,39.55-32.08,81-31.89,119.93a187,187,0,0,0,11.81,65.56h0c1.48,3.9,3.07,7.75,4.81,11.53.18.39.37.76.55,1.15l27,63.83c.51,1.25,1,2.49,1.58,3.72l.44,1c.15.36.31.71.49,1a179.06,179.06,0,0,0,50.38,65.1c42,34.46,99.17,52.56,164,52.56a374.9,374.9,0,0,0,45.76-2.87C732.13,933.14,813.84,897.1,880,841.81c50.64-42.33,88.06-92.64,108.2-145.48C1008.21,643.81,1010.12,592.13,993.73,546.82Zm-36.2,137.82c-18.15,47.61-52.24,93.25-98.59,132-61.36,51.29-137,84.71-213.05,94.09-74.63,9.2-140.32-5.88-185-42.49a151,151,0,0,1-28.24-30.33c39.44,24,88.46,36.16,141.59,36.16,52.48,0,109-11.86,164.07-35.83a16.41,16.41,0,0,0-13.09-30.09C671.19,831.65,614.77,843,562.1,841c-52.88-2-98.45-17.53-131.78-44.86a147.12,147.12,0,0,1-39.95-50.27L385.1,733.4a154.94,154.94,0,0,1-9.23-53c-.16-33.49,9.54-69.57,28.05-104.35,19.46-36.56,48.82-71.83,84.91-102,61.35-51.29,137-84.71,213.05-94.09,74.63-9.21,140.32,5.88,185,42.49a147.4,147.4,0,0,1,39.67,49.71l5.64,13.3a155.22,155.22,0,0,1,9.13,52.7c.16,33.49-9.54,69.57-28,104.35-19.46,36.56-48.82,71.83-84.9,102a16.41,16.41,0,0,0,21,25.18c39.86-33.32,71.09-70.92,92.83-111.76a277.19,277.19,0,0,0,27.33-74.81C975.05,614.69,971,649.27,957.53,684.64Z"/><path class="cls-1" d="M796.72,535.87l32.68-27.23a16.41,16.41,0,1,0-21-25.21l-35,29.15-29.5-25.17L779,458.2A16.4,16.4,0,1,0,758,433l-39.37,32.81-28.8-24.56a16.41,16.41,0,1,0-21.29,25L693,487.12,519.76,631.5c-15.08-13.88-24.74-24.43-24.91-24.61A16.41,16.41,0,1,0,470.58,629c.69.76,9.62,10.53,23.74,23.73L455.5,685.05a16.41,16.41,0,0,0,21,25.21l42.76-35.64c8,6.52,16.56,13.17,25.6,19.5,2,1.38,3.93,2.71,5.88,4l-44.81,37.34a16.41,16.41,0,1,0,21,25.21l53.9-44.92a163.92,163.92,0,0,0,32.47,12.32,102.2,102.2,0,0,0,24.78,3.23c22.14,0,37.62-8.46,47.49-16.78,15-12.69,22.94-29.17,22.8-47.68A78.93,78.93,0,0,0,703.5,641a98.52,98.52,0,0,0,17.12,4.16c25.28,3.67,47.29-4.27,67.29-24.26,18.6-18.6,21.93-37.26,21.46-49.65S804.49,546.83,796.72,535.87ZM664.44,689.45c-25.81,21.76-68.83.08-100.37-21.94-6.62-4.62-13-9.47-19.09-14.32L623.21,588q4.72,4.32,9.33,8.33c18.23,17.85,42.87,47.23,43,70.81C675.63,675.91,672.09,683,664.44,689.45Zm100.27-91.73c-12.68,12.68-24.45,17.16-39.37,15-19.08-2.77-43-16.62-71.37-41.23-1.84-1.78-3.56-3.4-5.13-4.84l69.5-57.91,41.71,35.59c.12.16.22.32.35.47a16.21,16.21,0,0,0,3.87,3.37c7.65,7.6,12,16.14,12.31,24.38C776.9,581.05,772.91,589.52,764.71,597.72Z"/></svg>