<svg id="Слой_1" data-name="Слой 1" xmlns="http://www.w3.org/2000/svg" viewBox="0 0 1005.51 977.44"><defs><style>.cls-1{fill:#1d1d1b;}</style></defs><title>icon_settings_thin</title><path class="cls-1" d="M581.08,674.7a249.77,249.77,0,0,0,0-62.06l74.25-67a8.21,8.21,0,0,0,2.29-8.69A342.21,342.21,0,0,0,638,490.09a8.21,8.21,0,0,0-7.73-4.46l-99.78,5.1A250.1,250.1,0,0,0,486.68,447l5.06-99.19a8.19,8.19,0,0,0-4.5-7.74,340.18,340.18,0,0,0-47.4-19.58,8.23,8.23,0,0,0-8.64,2.3l-66.54,73.7a249.93,249.93,0,0,0-61.84,0l-66.53-73.7a8.23,8.23,0,0,0-8.64-2.3A340.18,340.18,0,0,0,180.25,340a8.19,8.19,0,0,0-4.5,7.74L180.81,447A250.1,250.1,0,0,0,137,490.73l-99.78-5.1a8.23,8.23,0,0,0-7.73,4.46A342.21,342.21,0,0,0,9.9,536.92a8.21,8.21,0,0,0,2.29,8.69l74.25,67a249.77,249.77,0,0,0,0,62.06L11.54,742.3a8.22,8.22,0,0,0-2.31,8.64,341.73,341.73,0,0,0,19,46.29A8.19,8.19,0,0,0,36,801.75l100.83-5.14a250.55,250.55,0,0,0,44,44L175.62,942a8.21,8.21,0,0,0,4.49,7.74,340.41,340.41,0,0,0,45.72,19,8.2,8.2,0,0,0,8.68-2.28L302.6,891.1a249.62,249.62,0,0,0,62.28,0L433,966.53a8.22,8.22,0,0,0,6.09,2.71,8,8,0,0,0,2.59-.43,340.41,340.41,0,0,0,45.72-19,8.21,8.21,0,0,0,4.49-7.74l-5.18-101.43a250.55,250.55,0,0,0,44-44l100.83,5.14a8.19,8.19,0,0,0,7.76-4.52,342.26,342.26,0,0,0,19-46.29A8.22,8.22,0,0,0,656,742.3Zm45.85,110.39L527.19,780a8.18,8.18,0,0,0-7,3.27,233.89,233.89,0,0,1-46.86,46.88,8.24,8.24,0,0,0-3.27,7l5.13,100.36a323.6,323.6,0,0,1-33.68,14L374.17,876.9a8.2,8.2,0,0,0-6.09-2.71,9,9,0,0,0-1.16.08,233.38,233.38,0,0,1-66.35,0,8.22,8.22,0,0,0-7.25,2.63L226,951.52a323.6,323.6,0,0,1-33.68-14l5.13-100.36a8.24,8.24,0,0,0-3.27-7,233.63,233.63,0,0,1-46.86-46.88,8.21,8.21,0,0,0-7-3.27l-99.74,5.09a325.82,325.82,0,0,1-14-34.21L100.61,684a8.19,8.19,0,0,0,2.62-7.24,233.87,233.87,0,0,1,0-66.14,8.22,8.22,0,0,0-2.63-7.25L27.2,537.06a325.61,325.61,0,0,1,14.57-34.77l98.73,5a8.26,8.26,0,0,0,7-3.26,233.58,233.58,0,0,1,46.67-46.64,8.22,8.22,0,0,0,3.27-7l-5-98.11a325.74,325.74,0,0,1,35.31-14.58l65.82,72.91a8.22,8.22,0,0,0,7.24,2.63,233.37,233.37,0,0,1,65.93,0,8.22,8.22,0,0,0,7.24-2.63l65.82-72.91a325.74,325.74,0,0,1,35.31,14.58l-5,98.11a8.22,8.22,0,0,0,3.27,7A233.58,233.58,0,0,1,520,504.07a8.22,8.22,0,0,0,7,3.26l98.73-5a325.61,325.61,0,0,1,14.57,34.77l-73.44,66.3a8.22,8.22,0,0,0-2.63,7.25,233.87,233.87,0,0,1,0,66.14,8.19,8.19,0,0,0,2.62,7.24L641,750.88A323.69,323.69,0,0,1,626.93,785.09Z"/><path class="cls-1" d="M991.81,248.78l-65.27-29a182.64,182.64,0,0,0-5.44-20.68A185.43,185.43,0,0,0,913.21,179l35.23-61.45a8.2,8.2,0,0,0-.53-9,246.54,246.54,0,0,0-24.12-27.93,8.2,8.2,0,0,0-8.73-1.84l-66,25.37a182.61,182.61,0,0,0-38.14-19.34L792.49,17a8.21,8.21,0,0,0-6.68-6A246.26,246.26,0,0,0,748.64,8.2a8.2,8.2,0,0,0-7.49,4.87L712.58,77.3A182.71,182.71,0,0,0,672,90.56l-61-35a8.2,8.2,0,0,0-8.93.49,247.5,247.5,0,0,0-28.33,24.23,8.19,8.19,0,0,0-1.87,8.75l25.21,65.64a183.5,183.5,0,0,0-19.36,38.12l-68.27,18.51a8.21,8.21,0,0,0-6,6.65,247.54,247.54,0,0,0-3,36.78,8.2,8.2,0,0,0,4.87,7.54l64.71,28.79a182.82,182.82,0,0,0,13.3,40.76l-35.54,62a8.19,8.19,0,0,0,.5,8.92,245.71,245.71,0,0,0,23.57,27.69,8.2,8.2,0,0,0,8.78,1.9l66.74-25.65a182.54,182.54,0,0,0,38.32,19.47l18.83,69.42a8.18,8.18,0,0,0,6.67,6,247.81,247.81,0,0,0,35.88,2.84h.05a8.2,8.2,0,0,0,7.49-4.87l29.26-65.76a186,186,0,0,0,20.84-5.47,183.46,183.46,0,0,0,20.06-7.9l62.43,35.81a8.22,8.22,0,0,0,9-.53,248.61,248.61,0,0,0,27.28-23.47,8.21,8.21,0,0,0,1.87-8.75l-25.8-67.15A182.5,182.5,0,0,0,919,318l69-18.71a8.22,8.22,0,0,0,6-6.71,249,249,0,0,0,2.67-36.27A8.19,8.19,0,0,0,991.81,248.78ZM978.5,284.84l-67.92,18.41a8.22,8.22,0,0,0-5.62,5.28,166,166,0,0,1-21.29,42,8.19,8.19,0,0,0-.94,7.65l25.4,66.11c-5.54,5.27-11.37,10.29-17.41,15L829.27,404a8.2,8.2,0,0,0-7.71-.24,166.11,166.11,0,0,1-44.79,14.63,8.2,8.2,0,0,0-6.08,4.75L741.9,487.88c-7.64-.23-15.31-.83-22.89-1.81l-18.54-68.36a8.21,8.21,0,0,0-5.27-5.62,166.14,166.14,0,0,1-42-21.31,8.24,8.24,0,0,0-7.66-.95l-65.68,25.24a230.44,230.44,0,0,1-15.12-17.76l35-61a8.2,8.2,0,0,0,.25-7.7,165.63,165.63,0,0,1-14.57-44.66,8.2,8.2,0,0,0-4.75-6.07L517,249.53a230.32,230.32,0,0,1,1.93-23.76l67.23-18.23a8.19,8.19,0,0,0,5.61-5.27A166.48,166.48,0,0,1,613,160.49a8.19,8.19,0,0,0,.94-7.65l-24.82-64.6a229.15,229.15,0,0,1,18.4-15.72l60,34.42a8.2,8.2,0,0,0,7.7.24,166.7,166.7,0,0,1,44.51-14.54,8.19,8.19,0,0,0,6.07-4.74L754,24.67a232.2,232.2,0,0,1,24.12,1.84L796.18,93.3a8.22,8.22,0,0,0,5.28,5.62,166.45,166.45,0,0,1,41.79,21.19,8.22,8.22,0,0,0,7.65.94l65-25a232.2,232.2,0,0,1,15.58,18l-34.67,60.47a8.18,8.18,0,0,0-.24,7.7,166,166,0,0,1,14.61,44.65,8.21,8.21,0,0,0,4.74,6.07l64.27,28.59A232.57,232.57,0,0,1,978.5,284.84Z"/><path class="cls-1" d="M343.57,469.57c-91.12,0-165.26,74.14-165.26,165.26s74.14,165.26,165.26,165.26A164.94,164.94,0,0,0,454,757.77a8.2,8.2,0,0,0-11-12.2,148.54,148.54,0,0,1-99.47,38.11c-82.07,0-148.85-66.77-148.85-148.85S261.5,486,343.57,486s148.85,66.77,148.85,148.85a148.37,148.37,0,0,1-8.48,49.65A8.21,8.21,0,0,0,499.41,690a164.93,164.93,0,0,0,9.42-55.13C508.83,543.71,434.7,469.57,343.57,469.57Z"/><path class="cls-1" d="M748.59,159a97.3,97.3,0,0,0-82.48,148.88,8.2,8.2,0,1,0,13.9-8.71,80.82,80.82,0,1,1,33.35,29.92,8.21,8.21,0,0,0-7.16,14.77,96.31,96.31,0,0,0,42.39,9.7,97.28,97.28,0,0,0,0-194.56Z"/></svg>