<?xml version="1.0" encoding="utf-8"?>
<!-- Generator: Adobe Illustrator 23.0.6, SVG Export Plug-In . SVG Version: 6.00 Build 0)  -->
<svg version="1.1" id="Слой_1" xmlns="http://www.w3.org/2000/svg" xmlns:xlink="http://www.w3.org/1999/xlink" x="0px" y="0px"
	 viewBox="0 0 1442.9 1344.3" style="enable-background:new 0 0 1442.9 1344.3;" xml:space="preserve">
<style type="text/css">
	.st0{fill:#1D1D1B;}
</style>
<title>icon_hardwarewallet</title>
<path class="st0" d="M1277.7,134.6H779.8c-28.2,0-51,22.9-51.1,51.1v29.7c-7.4-6.2-15.4-11.6-24-15.9c-29.2-15.1-63.3-17.8-94.5-7.6
	l-17.9,5.8c-8.3,2.5-12.9,11.3-10.4,19.6c2.5,8.3,11.3,12.9,19.6,10.4c0.1,0,0.3-0.1,0.4-0.1l17.9-5.8
	c48.7-15.6,100.9,11,116.8,59.6l66.3,204.3l0,0.1l146.7,452c15.7,48.7-10.9,100.9-59.6,116.8l-414.1,134.4
	c-48.7,15.7-100.9-10.9-116.8-59.6L146,472.8c-15.7-48.7,10.9-100.9,59.6-116.8l19.5-6.3c8.3-2.5,13-11.2,10.5-19.5
	s-11.2-13-19.5-10.5c-0.2,0.1-0.4,0.1-0.6,0.2l-19.5,6.3c-65.1,21.1-100.8,91.2-79.7,156.2l213,656.5c21.1,65.1,91,100.8,156.2,79.7
	c0,0,0.1,0,0.1,0l414.1-134.4c41.9-13.6,73.4-48.4,82.8-91.4h295.2c28.2-0.1,51-22.9,51-51.1V185.7
	C1328.7,157.5,1305.9,134.7,1277.7,134.6z M833.5,478.4V240.9c0-1.3,1.1-2.4,2.5-2.5h385.6c1.4,0,2.4,1.1,2.5,2.5v256.4
	c0,1.4-1.1,2.4-2.5,2.5H840.4L833.5,478.4z M1297.4,941.9c0,10.9-8.8,19.7-19.7,19.7H985.3c-0.4-11.4-2.4-22.7-6-33.6L850.6,531.1
	h370.9c18.7,0,33.8-15.2,33.8-33.8V240.9c0-18.7-15.1-33.8-33.8-33.8H836c-18.7,0-33.8,15.2-33.8,33.8v141l-35.8-110.3
	c-1.7-5.4-3.8-10.6-6.3-15.7v-70.1c0-10.9,8.8-19.7,19.7-19.7h497.9c10.9,0,19.7,8.8,19.7,19.7L1297.4,941.9z"/>
<path class="st0" d="M334.7,613.8c12,37,51.8,57.3,88.8,45.3L621.2,595c37-12.1,57.2-51.8,45.3-88.8c-2.5-8.3-11.2-13-19.5-10.5
	s-13,11.2-10.5,19.5c0.1,0.2,0.1,0.4,0.2,0.6c6.6,20.6-4.7,42.6-25.2,49.4l-197.7,64.1c-20.6,6.7-42.7-4.6-49.4-25.2l-95.3-293.7
	c-6.6-20.6,4.7-42.6,25.2-49.4L492.1,197c20.6-6.7,42.7,4.6,49.4,25.2l77.6,239c2.8,8.2,11.8,12.5,19.9,9.7
	c7.9-2.8,12.3-11.3,9.9-19.3l-77.6-239c-12.1-37-51.8-57.2-88.8-45.3l-197.7,64.1c-37,12.1-57.2,51.8-45.3,88.8L334.7,613.8z"/>
<path class="st0" d="M506.5,378.8c-41.6-22.2-93.3-6.4-115.5,35.2c-0.5,0.9-1,1.8-1.4,2.7c-21.2,43.5-4.2,96.1,38.6,118.9
	c20.4,10.9,44.5,13.1,66.5,5.9c45.4-14.7,70.2-64.6,55.1-111C542.6,408.2,527.1,389.7,506.5,378.8z M485,511.7
	c-14,4.5-29.2,3.1-42.2-3.8c-27.8-14.9-38.9-49-25.1-77.4c6.4-13.2,17.9-23.3,31.9-27.8l0,0c14-4.5,29.2-3.1,42.2,3.8
	c13.4,7.1,23.5,19.1,28.1,33.6C529.7,470.2,514,502.3,485,511.7z"/>
</svg>
