<svg id="Слой_1" data-name="Слой 1" xmlns="http://www.w3.org/2000/svg" viewBox="0 0 1002.31 946.16"><defs><style>.cls-1{fill:#1d1d1b;}</style></defs><title>icon_coins_thin</title><path class="cls-1" d="M487.34,251.88l17.74,29.24c.36.6.72,1.2,1.05,1.72l.32.54c.1.17.21.33.32.49a89.91,89.91,0,0,0,30.34,29c17.45,10.33,38.38,15.55,61.27,15.55a177.37,177.37,0,0,0,48.85-7.26c41-11.79,79.84-36.67,109.39-70.07,46-51.94,60.17-114.22,36.28-158.81a6.7,6.7,0,0,0-.37-.7c-1.29-2.35-2.7-4.67-4.2-6.9L772.16,58.09a89.21,89.21,0,0,0-33.88-34.93C709,5.82,669.86,2.88,628.16,14.87c-41,11.79-79.84,36.68-109.39,70.07-35.9,40.58-52.78,87.43-46.31,128.54A93,93,0,0,0,487.34,251.88ZM531.06,95.82c27.51-31.1,63.6-54.24,101.63-65.18,37.32-10.73,71.85-8.37,97.24,6.64a74,74,0,0,1,23.86,22.19l3.44,5.66a78.38,78.38,0,0,1,8.69,25.81c5.63,35.72-10.22,78.76-42.39,115.11a8.2,8.2,0,1,0,12.29,10.87c29.34-33.16,46-70.51,47.54-105.5,5.37,15.82,5.95,34.07,1.58,53.55-5.78,25.73-19.82,51.75-40.61,75.25-27.51,31.09-63.6,54.23-101.64,65.17-37.31,10.73-71.85,8.37-97.23-6.64A75.46,75.46,0,0,1,528,284.6c14.77,6.36,31.54,9.62,49.63,9.62A160.75,160.75,0,0,0,597,293a8.2,8.2,0,0,0-2-16.29c-27.06,3.26-51.38-.94-70.33-12.15a74,74,0,0,1-24-22.39L497.48,237a78.33,78.33,0,0,1-8.81-26C483,175.2,498.89,132.17,531.06,95.82Z"/><path class="cls-1" d="M311.4,573.24c-97.91-30.49-191.5-112-227.6-198.14-21.4-51.06-20.4-96.89,2.82-129,22.54-31.22,63.92-46.2,116.52-42.17,48.93,3.76,103.36,24,153.26,57,49.48,32.71,91.38,75.79,118,121.31a8.2,8.2,0,1,0,14.16-8.28C460.7,326.25,417,281.25,365.45,247.18c-52.19-34.5-109.39-55.69-161.06-59.66C145.89,183,99.33,200.41,73.31,236.45c-1.13,1.57-2.21,3.18-3.25,4.81L27,299.92a1.43,1.43,0,0,0-.14.2c-1.54,2.23-3,4.57-4.4,6.95l-1.28,2a8.71,8.71,0,0,0-.87,1.86c-18.76,35.67-17.64,82.57,3.2,132.31C43.18,490.3,79.71,537.45,126.32,576c45.91,38,99.61,66.14,151.22,79.27a8.37,8.37,0,0,0,2,.26,8.21,8.21,0,0,0,2-16.16c-49.3-12.55-100.72-39.54-144.8-76-44.6-36.91-79.47-81.83-98.18-126.47-19.13-45.67-20.27-88.09-3.21-119.45a8,8,0,0,0,.4-.84l.58-.92.17-.28c1.17-2,2.42-4,3.72-5.89l12.42-16.91c-2.63,26.9,2.68,57.06,16,88.82,18.94,45.21,52.15,89.13,96,127,42.39,36.6,92.76,65.17,141.82,80.45a8.21,8.21,0,0,0,4.88-15.67Z"/><path class="cls-1" d="M349.37,340.89,175.56,252a8.2,8.2,0,0,0-11.79,8.85l33,171.88,0,.1a7.44,7.44,0,0,0,.2.78c0,.05,0,.11.05.17a.06.06,0,0,0,0,0c0,.06.05.12.07.17.12.31.25.61.39.91l.21.37c.13.22.26.43.41.64l.27.37c.16.2.34.39.52.58s.17.19.27.28a7.75,7.75,0,0,0,.88.73l.17.11c.27.17.54.34.82.49l.38.16.45.21L366.39,501.5a8.21,8.21,0,0,0,11-9L353.73,346.88A8.23,8.23,0,0,0,349.37,340.89Zm-22.46,6.94L286.5,394.65l-75.4,25.69-28-146.11ZM229,431.58l64.91-22.12a8.2,8.2,0,0,0,3.56-2.4l41.59-48.19,19.87,122.22Z"/><path class="cls-1" d="M984.72,549.64a7.48,7.48,0,0,0-.33-.9l0-.09c-1.78-4.81-3.81-9.6-6-14.25l-24-56.58c-10.3-28.61-28.16-53.69-53.08-74.13C851.32,362.77,779,345.77,697.64,355.81c-80.68,10-160.87,45.34-225.82,99.63-39.05,32.64-69.61,69.42-90.85,109.31-20.41,38.36-31.11,78.48-30.93,116,.13,27.86,6,53.67,17.24,76.79l26.3,62.2c.5,1.23,1,2.46,1.51,3.59l.48,1.13c.1.22.2.44.32.66a170.94,170.94,0,0,0,48.2,62.34c40.55,33.24,95.86,50.7,158.82,50.7a366.73,366.73,0,0,0,44.77-2.82c80.68-10,160.88-45.34,225.82-99.63,49.57-41.43,86.16-90.58,105.8-142.11C998.64,642.9,1000.51,593.12,984.72,549.64ZM964,687.79c-18.65,48.91-53.57,95.72-101,135.36C734.25,930.76,551,953.93,454.5,874.8A154.67,154.67,0,0,1,410.64,818c-.06-.13-.11-.25-.17-.37l-.3-.7c-.49-1.11-1-2.23-1.42-3.36l0-.09-1.41-3.35q3,2.71,6.19,5.33c41.05,33.66,97.32,50.72,159.48,50.71,51.36,0,106.75-11.64,160.87-35.19a8.2,8.2,0,0,0-6.54-15c-55.19,24-112.85,35.6-166.74,33.55-54.68-2.09-101.94-18.24-136.67-46.72a155.52,155.52,0,0,1-42-52.78l-5.54-13.13-.15-.29a163.55,163.55,0,0,1-9.73-55.81c-.16-34.85,9.87-72.28,29-108.25,20.24-38,49.47-73.15,86.88-104.43,128.73-107.61,312-130.78,408.49-51.65a155.51,155.51,0,0,1,41.84,52.42l.08.21,6,14.09a163.36,163.36,0,0,1,9.54,55.29c.17,34.85-9.86,72.28-29,108.25-20.24,38-49.47,73.15-86.88,104.43a8.2,8.2,0,1,0,10.52,12.59c39-32.64,69.61-69.42,90.84-109.31,19.42-36.48,30-74.55,30.88-110.48,1.61,3.5,3.09,7.06,4.41,10.64a1,1,0,0,0,0,.1l.06.17C983.74,594.62,982,640.61,964,687.79Z"/><path class="cls-1" d="M812.42,490l-40.29,33.58-42.17-36,42.53-35.44A8.21,8.21,0,0,0,762,439.52L717.3,476.76l-34.06-29a8.2,8.2,0,1,0-10.65,12.48l31.92,27.22L518.3,642.6c-18.41-16.49-30.55-29.75-30.74-30a8.2,8.2,0,1,0-12.14,11c1.53,1.68,12.93,14.08,30.07,29.59l-46,38.31a8.2,8.2,0,0,0,10.5,12.6l48-40a379.41,379.41,0,0,0,45.34,33.32L510,742a8.2,8.2,0,1,0,10.5,12.61l58.08-48.4c19.51,10.22,39.75,17.16,58.74,17.16,15,0,29.3-4.36,41.79-14.89,13.31-11.22,20-25.13,19.88-41.34-.1-12.89-4.54-26.93-13.25-42,12.41,6.51,24,10.53,34.86,12.1a71,71,0,0,0,10.37.77c18.3,0,34.73-7.49,49.95-22.71C794,602.29,800.54,587.24,800,571.83c-.5-13-6.06-25.77-15.83-36.92l38.8-32.34A8.2,8.2,0,0,0,812.42,490ZM668.51,696c-13,10.94-29.45,13.73-50.33,8.51-17.66-4.41-37.93-14.55-60.22-30.13-9.6-6.72-18.75-13.87-27.09-20.85l91.44-76.2a6.88,6.88,0,0,0,.53.55q6.72,6.31,13.18,11.95c5.14,5,11.28,11.31,17.38,18.5,19,22.31,29,42.72,29.15,59C682.63,678.54,678,687.91,668.51,696Zm100.78-92.2c-9.84,9.83-21.75,17.9-38.47,17.9-19.68,0-46-11.17-83.46-43.75-5.66-5.48-10.15-9.39-12.32-11.23l82.13-68.45c21.42,18.27,43.38,37,47.7,40.71a9.28,9.28,0,0,0,.61.83,8.08,8.08,0,0,0,2.54,2c9.63,9.26,15.12,20,15.53,30.67C784,583.34,779.17,593.87,769.29,603.75Z"/></svg>