<svg id="Слой_1" data-name="Слой 1" xmlns="http://www.w3.org/2000/svg" viewBox="0 0 879.76 879.76"><defs><style>.cls-1{fill:#1d1d1b;}</style></defs><title>icon_home_bold</title><path class="cls-1" d="M788.63,412.56A16.41,16.41,0,0,0,772.22,429v418H565.41V557.2A16.41,16.41,0,0,0,549,540.8H330.76a16.41,16.41,0,0,0-16.41,16.4V846.94H107.54V429a16.41,16.41,0,0,0-32.82,0V863.35a16.41,16.41,0,0,0,16.41,16.41H330.76a16.41,16.41,0,0,0,16.41-16.41V573.61H532.59V863.35A16.41,16.41,0,0,0,549,879.76H788.63A16.41,16.41,0,0,0,805,863.35V429A16.41,16.41,0,0,0,788.63,412.56Z"/><path class="cls-1" d="M874.12,372.49,450.65,4a16.41,16.41,0,0,0-21.54,0L5.64,372.49a16.41,16.41,0,1,0,21.54,24.76L439.88,38.16l412.7,359.09a16.41,16.41,0,0,0,21.54-24.76Z"/></svg>