<?xml version="1.0" encoding="utf-8"?>
<!-- Generator: Adobe Illustrator 23.0.6, SVG Export Plug-In . SVG Version: 6.00 Build 0)  -->
<svg version="1.1" id="Слой_1" xmlns="http://www.w3.org/2000/svg" xmlns:xlink="http://www.w3.org/1999/xlink" x="0px" y="0px"
	 viewBox="0 0 884.2 842" style="enable-background:new 0 0 884.2 842;" xml:space="preserve">
<style type="text/css">
	.st0{fill:#1D1D1B;}
</style>
<title>icon_wallets</title>
<path class="st0" d="M812.6,713.9c-9.1,0-16.4,7.3-16.4,16.4v0.1c0,43.5-35.3,78.7-78.7,78.7H111.6c-43.5,0-78.7-35.3-78.7-78.7
	V348.2c0-43.5,35.3-78.7,78.7-78.7h605.9c43.5,0,78.7,35.3,78.7,78.7v1.7c0,9.1,7.4,16.4,16.4,16.4c9.1,0,16.4-7.4,16.4-16.4v-1.6
	c0-61.6-50-111.5-111.6-111.6H111.6C50,236.8,0.1,286.7,0,348.2v382.2C0.1,792,50,841.9,111.6,842h605.9
	c61.6-0.1,111.5-50,111.6-111.5v-0.1C829,721.2,821.6,713.9,812.6,713.9C812.6,713.9,812.6,713.9,812.6,713.9z"/>
<path class="st0" d="M819.6,383.5h-271c-35.7,0-64.6,28.9-64.6,64.6v182.4c0,35.6,28.9,64.5,64.6,64.6c9.1,0.2,16.6-6.9,16.8-16
	c0.2-9.1-6.9-16.6-16-16.8c-0.3,0-0.5,0-0.8,0c-17.5,0-31.7-14.2-31.8-31.8V448.1c0-17.5,14.2-31.7,31.8-31.7h271
	c17.5,0,31.7,14.2,31.8,31.7v182.4c0,17.5-14.2,31.7-31.8,31.8H615.5c-9.1-0.2-16.6,6.9-16.8,16c-0.2,9.1,6.9,16.6,16,16.8
	c0.3,0,0.5,0,0.8,0h204.2c35.6,0,64.5-28.9,64.6-64.6V448.1C884.1,412.5,855.3,383.6,819.6,383.5z"/>
<path class="st0" d="M723.8,539.3c0-43.4-36.1-78.7-80.4-78.7S563,495.9,563,539.3s36,78.7,80.4,78.7S723.8,582.7,723.8,539.3z
	 M595.8,539.3c0-25.3,21.4-45.9,47.6-45.9S691,514,691,539.3s-21.4,45.9-47.6,45.9S595.8,564.6,595.8,539.3z"/>
<path class="st0" d="M719,202.8L668.3,82.2c-9.4-22.2-32.3-34.7-55.1-31.8l-28.2-32.4c-9.2-10.6-22-16.9-36.1-17.9
	c-14.1-1-27.6,3.5-38.2,12.7L337.2,163.7c-0.5,0.5-1,1-1.5,1.5l-67.2,28.3c-8.4,3.5-12.3,13.2-8.8,21.6c3.5,8.4,13.2,12.3,21.6,8.8
	L612.1,84.6c10-4.2,21.5,0.5,25.7,10.5l50.8,120.6c2.7,6.3,8.8,10.1,15.2,10.1c2.1,0,4.3-0.4,6.4-1.3
	C718.6,220.9,722.6,211.2,719,202.8z M532.3,37.8c3.9-3.4,9-5.1,14.2-4.7c5.3,0.4,10,2.7,13.5,6.7l19.7,22.7l-146.9,61.9L532.3,37.8
	z"/>
</svg>
