<svg id="Слой_1" data-name="Слой 1" xmlns="http://www.w3.org/2000/svg" viewBox="0 0 884.18 898.08"><defs><style>.cls-1{fill:#1d1d1b;}</style></defs><title>icon_wallets_thin</title><path class="cls-1" d="M179.76,266a8.2,8.2,0,0,0,5.92-2.52L400.73,39.57l.14-.15c17.87-19.53,48.73-21.27,68.79-3.88l213,184.61c9.5,8.23,15.87,17.54,16.07,36.19a8.21,8.21,0,0,0,8.2,8.11h.1a8.2,8.2,0,0,0,8.11-8.3c-.23-20.92-6.73-35.4-21.73-48.4L480.4,23.14C453.71,0,412.66,2.32,388.83,28.27l-215,223.86A8.21,8.21,0,0,0,179.76,266Z"/><path class="cls-1" d="M812.57,777.19a8.21,8.21,0,0,0-8.2,8.21v.14a87,87,0,0,1-86.94,86.93H111.55a87,87,0,0,1-86.94-86.93V403.35a87,87,0,0,1,86.94-86.94H717.43a87,87,0,0,1,86.94,86.94V405a8.2,8.2,0,1,0,16.4,0v-1.63A103.46,103.46,0,0,0,717.43,300H111.55A103.46,103.46,0,0,0,8.2,403.35V785.54A103.46,103.46,0,0,0,111.55,888.88H717.43A103.46,103.46,0,0,0,820.77,785.54v-.14A8.21,8.21,0,0,0,812.57,777.19Z"/><path class="cls-1" d="M819.62,446.87h-271a56.42,56.42,0,0,0-56.36,56.35V685.66A56.42,56.42,0,0,0,548.6,742a8.21,8.21,0,0,0,0-16.41,40,40,0,0,1-40-40V503.22a40,40,0,0,1,40-39.94h271a40,40,0,0,1,40,39.94V685.66a40,40,0,0,1-40,40H615.45a8.21,8.21,0,1,0,0,16.41H819.62A56.42,56.42,0,0,0,876,685.66V503.22A56.42,56.42,0,0,0,819.62,446.87Z"/><path class="cls-1" d="M715.63,594.44c0-38.89-32.4-70.52-72.23-70.52s-72.24,31.63-72.24,70.52S603.57,665,643.4,665,715.63,633.33,715.63,594.44Zm-128.06,0c0-29.84,25-54.11,55.83-54.11s55.83,24.27,55.83,54.11-25.05,54.12-55.83,54.12S587.57,624.28,587.57,594.44Z"/></svg>