<svg id="Слой_1" data-name="Слой 1" xmlns="http://www.w3.org/2000/svg" viewBox="0 0 1005.51 977.44"><defs><style>.cls-1{fill:#1d1d1b;}</style></defs><title>icon_settings_bold</title><path class="cls-1" d="M660.83,736.21l-71.74-64.76a257.05,257.05,0,0,0,0-55.55l71.11-64.2a16.41,16.41,0,0,0,4.57-17.37,348.36,348.36,0,0,0-20.09-48,16.42,16.42,0,0,0-15.45-8.93l-95.56,4.88a258.14,258.14,0,0,0-39.18-39.16l4.85-95a16.4,16.4,0,0,0-9-15.48,347.13,347.13,0,0,0-48.55-20.05,16.39,16.39,0,0,0-17.27,4.6l-63.71,70.56a258.34,258.34,0,0,0-55.32,0l-63.71-70.56a16.39,16.39,0,0,0-17.27-4.6,347.75,347.75,0,0,0-48.56,20.05,16.39,16.39,0,0,0-9,15.48l4.85,95a258.14,258.14,0,0,0-39.18,39.16L37,477.44a16.4,16.4,0,0,0-15.45,8.93,348.36,348.36,0,0,0-20.09,48A16.41,16.41,0,0,0,6.07,551.7l71.11,64.2a257.05,257.05,0,0,0,0,55.55L5.41,736.21a16.41,16.41,0,0,0-4.6,17.27,347.65,347.65,0,0,0,19.46,47.41A16.39,16.39,0,0,0,35.78,810l96.6-4.94a258.36,258.36,0,0,0,39.38,39.41l-5,97.2a16.41,16.41,0,0,0,9,15.48,348.69,348.69,0,0,0,46.82,19.5A16.43,16.43,0,0,0,240,972l65.26-72.29a258.66,258.66,0,0,0,55.77,0L426.27,972a16.41,16.41,0,0,0,17.36,4.57,348.69,348.69,0,0,0,46.82-19.5,16.41,16.41,0,0,0,9-15.48l-5-97.2A257.91,257.91,0,0,0,533.85,805L630.46,810A16.41,16.41,0,0,0,646,800.89a348.7,348.7,0,0,0,19.46-47.41A16.41,16.41,0,0,0,660.83,736.21Zm-39.62,40.41L527,771.8a16.48,16.48,0,0,0-14,6.55,225.62,225.62,0,0,1-45.21,45.24,16.42,16.42,0,0,0-6.53,14l4.84,94.88q-11.21,5.19-22.81,9.5L379.63,871.4a16.46,16.46,0,0,0-14.49-5.25,226,226,0,0,1-64,0,16.4,16.4,0,0,0-14.49,5.25l-63.67,70.53q-11.58-4.3-22.81-9.5L205,837.55a16.4,16.4,0,0,0-6.54-14,226.15,226.15,0,0,1-45.21-45.24,16.45,16.45,0,0,0-14-6.55L45,776.62c-3.5-7.64-6.7-15.44-9.57-23.32l70-63.22a16.38,16.38,0,0,0,5.25-14.48,226,226,0,0,1,0-63.83,16.39,16.39,0,0,0-5.25-14.5L36.17,534.66c3-8.09,6.36-16.08,10-23.9l93.27,4.77A16.46,16.46,0,0,0,153.41,509a225.46,225.46,0,0,1,45-45A16.43,16.43,0,0,0,205,450l-4.73-92.63c8-3.7,16.15-7.07,24.41-10.08l62.15,68.84a16.39,16.39,0,0,0,14.48,5.25,226.06,226.06,0,0,1,63.63,0,16.43,16.43,0,0,0,14.49-5.25l62.15-68.84c8.26,3,16.42,6.38,24.41,10.08L461.25,450a16.4,16.4,0,0,0,6.54,14,225.46,225.46,0,0,1,45,45,16.47,16.47,0,0,0,13.95,6.53l93.27-4.77c3.66,7.82,7,15.81,10,23.9l-69.35,62.61a16.41,16.41,0,0,0-5.24,14.5,226,226,0,0,1,0,63.83,16.38,16.38,0,0,0,5.25,14.48l70,63.22C627.91,761.18,624.71,769,621.21,776.62Z"/><path class="cls-1" d="M994.52,241.28l-61.45-27.34c-1.33-5.9-2.93-11.73-4.8-17.43s-4-11.46-6.49-17.06l33.15-57.82a16.4,16.4,0,0,0-1-17.92A255.52,255.52,0,0,0,929,74.85a16.43,16.43,0,0,0-17.47-3.69L849.36,95a191.36,191.36,0,0,0-32.27-16.36l-17.3-63.83A16.4,16.4,0,0,0,786.42,2.92,254.73,254.73,0,0,0,748,0h0a16.41,16.41,0,0,0-15,9.74L706.15,70.15c-5.9,1.33-11.74,2.93-17.44,4.79s-11.36,4-16.9,6.43L614.45,48.48a16.43,16.43,0,0,0-17.85,1,255.44,255.44,0,0,0-29.27,25A16.41,16.41,0,0,0,563.58,92l23.72,61.73A191,191,0,0,0,570.92,186l-64.24,17.41a16.41,16.41,0,0,0-11.92,13.29,254.81,254.81,0,0,0-3.08,38,16.4,16.4,0,0,0,9.74,15.09l60.89,27.09c1.34,6,3,11.85,4.83,17.6s4,11.36,6.43,16.9l-33.46,58.35a16.4,16.4,0,0,0,1,17.84,256.35,256.35,0,0,0,24.35,28.62A16.43,16.43,0,0,0,583,440l62.84-24.15a190.8,190.8,0,0,0,32.46,16.49L696,497.73a16.42,16.42,0,0,0,13.36,11.92,255.86,255.86,0,0,0,37.07,2.93h.09a16.39,16.39,0,0,0,15-9.74l27.56-61.94c5.95-1.33,11.84-2.95,17.59-4.83s11.46-4.05,17.06-6.49l58.81,33.72a16.4,16.4,0,0,0,17.92-1A256.17,256.17,0,0,0,928.68,438a16.41,16.41,0,0,0,3.74-17.51l-24.3-63.24a190.17,190.17,0,0,0,16.47-32.48l65-17.61a16.43,16.43,0,0,0,11.94-13.43,257,257,0,0,0,2.76-37.47A16.44,16.44,0,0,0,994.52,241.28Zm-24.18,37.1-62.53,16.95a16.41,16.41,0,0,0-11.25,10.57,157.88,157.88,0,0,1-20.23,39.91,16.38,16.38,0,0,0-1.88,15.3L897.86,422q-4.17,3.76-8.52,7.32l-56.62-32.47a16.43,16.43,0,0,0-15.41-.48,158.23,158.23,0,0,1-42.59,13.91,16.43,16.43,0,0,0-12.15,9.49L736,479.45c-3.73-.2-7.47-.5-11.19-.89l-17.08-63a16.4,16.4,0,0,0-10.56-11.24,157.88,157.88,0,0,1-39.89-20.27A16.4,16.4,0,0,0,642,382.18l-60.48,23.24q-3.87-4.32-7.51-8.83l32.23-56.22a16.39,16.39,0,0,0,.49-15.39,158.91,158.91,0,0,1-13.85-42.47,16.4,16.4,0,0,0-9.49-12.15L524.81,244.3q.33-6,1-12.06l61.9-16.78a16.42,16.42,0,0,0,11.23-10.54A158,158,0,0,1,619.1,165.2,16.44,16.44,0,0,0,621,149.9L598.15,90.48q4.62-4.17,9.46-8.09l55.23,31.66a16.39,16.39,0,0,0,15.39.5,157.56,157.56,0,0,1,42.33-13.83,16.42,16.42,0,0,0,12.13-9.49l25.87-58.16q6.23.3,12.42.94l16.66,61.44a16.42,16.42,0,0,0,10.55,11.24,157.78,157.78,0,0,1,39.73,20.14,16.44,16.44,0,0,0,15.3,1.88l59.86-23c2.71,3,5.35,6,7.91,9.15l-31.9,55.63a16.4,16.4,0,0,0-.49,15.41,158.32,158.32,0,0,1,13.9,42.45A16.4,16.4,0,0,0,912,240.48l59.21,26.34Q970.92,272.61,970.34,278.38Z"/><path class="cls-1" d="M332,468.37c-95.65,0-173.47,77.81-173.47,173.46S236.3,815.29,332,815.29a173.16,173.16,0,0,0,115.92-44.41,16.41,16.41,0,0,0-21.94-24.41,140.38,140.38,0,0,1-94,36c-77.56,0-140.65-63.1-140.65-140.65S254.39,501.18,332,501.18s140.64,63.1,140.64,140.65a140.2,140.2,0,0,1-8,46.92,16.41,16.41,0,0,0,30.94,10.94,173.1,173.1,0,0,0,9.89-57.86C505.41,546.18,427.59,468.37,332,468.37Z"/><path class="cls-1" d="M748,150.81a105.49,105.49,0,0,0-89.43,161.44,16.41,16.41,0,1,0,27.8-17.43,72.6,72.6,0,1,1,30,26.9A16.41,16.41,0,0,0,702,351.25a105.49,105.49,0,1,0,46-200.44Z"/></svg>