<svg id="Слой_1" data-name="Слой 1" xmlns="http://www.w3.org/2000/svg" viewBox="0 0 1414.61 1414.61"><defs><style>.cls-1{fill:#1d1d1b;}</style></defs><title>icons_eth</title><path class="cls-1" d="M1359,432a709.58,709.58,0,1,0,55.59,275.31A704.81,704.81,0,0,0,1359,432Zm-30.31,537.82a676.68,676.68,0,1,1,53-262.51A672.1,672.1,0,0,1,1328.71,969.81Z"/><path class="cls-1" d="M715.34,209a16.46,16.46,0,0,0-29.19,0L425.46,709.33a16.46,16.46,0,0,0,8,22.69L693.27,845.57a16.38,16.38,0,0,0,13.14,0L968,732a16.47,16.47,0,0,0,8-22.7ZM699.88,812.54,462.78,708.92l238-456.73L938.68,708.88Z"/><path class="cls-1" d="M938.94,790.48,700,893.19,469.13,790.56a16.46,16.46,0,0,0-20.62,23.8L690,1198.2a16.46,16.46,0,0,0,27.86,0l241.5-383.84a16.46,16.46,0,0,0-20.43-23.88Zm-235,368L505.16,842.59l188,83.6a16.49,16.49,0,0,0,13.19.08l197-84.67Z"/></svg>