<svg id="Слой_1" data-name="Слой 1" xmlns="http://www.w3.org/2000/svg" viewBox="0 0 879.76 879.76"><defs><style>.cls-1{fill:#1d1d1b;}</style></defs><title>icon_btc</title><path class="cls-1" d="M514.71,828.57H444.3a9.29,9.29,0,0,1-9.29-9.29V713.72H393.12V819.28a9.29,9.29,0,0,1-9.29,9.29H313.42a9.29,9.29,0,0,1-9.28-9.29V713.72H175a9.28,9.28,0,0,1-9.28-9.29V615.49a9.27,9.27,0,0,1,9.28-9.28H252.6V265l-77.56.65a9.29,9.29,0,0,1-9.36-9.29v-81a9.27,9.27,0,0,1,9.28-9.28H304.14V59.75a9.29,9.29,0,0,1,9.28-9.29h70.41a9.29,9.29,0,0,1,9.29,9.29V166.11H435V59.75a9.29,9.29,0,0,1,9.29-9.29h70.41A9.28,9.28,0,0,1,524,59.75v106.6c44.29,1.82,82.92,15,112.21,38.25A141.14,141.14,0,0,1,689.39,302c3.38,32.73-6.48,63.79-28.52,89.81a146.55,146.55,0,0,1-20.76,20c20.8,10.82,57.47,33.46,71.39,64.39h0c9.56,21.25,13.07,51.81,9.62,83.86-3.62,33.58-14.08,62.81-29.48,82.31-16.48,20.87-40.22,38.31-68.67,50.43-28.89,12.3-62.15,19.2-99,20.55V819.28A9.28,9.28,0,0,1,514.71,828.57ZM453.58,810h51.85V704.34a9.28,9.28,0,0,1,9.17-9.28c38.06-.45,72.07-6.94,101.09-19.3,25.6-10.9,46.82-26.41,61.38-44.84,13.06-16.55,22.39-43.08,25.59-72.79,3.06-28.44,0-56.2-8.1-74.26-16.49-36.66-75.84-61.7-76.43-61.95a9.28,9.28,0,0,1-.94-16.69,122.48,122.48,0,0,0,29.92-25.9c18.67-22.27,26.68-47.65,23.81-75.41-3.54-34.2-19.54-63.51-46.28-84.79-28-22.28-66-34.18-110-34.43a9.28,9.28,0,0,1-9.23-9.28V69H453.58V175.39a9.27,9.27,0,0,1-9.28,9.28H383.83a9.28,9.28,0,0,1-9.28-9.28V69H322.71V175.39a9.28,9.28,0,0,1-9.29,9.28H184.25V247l77.55-.64h.08a9.29,9.29,0,0,1,9.29,9.28V615.49a9.28,9.28,0,0,1-9.29,9.28H184.25v70.38H313.42a9.28,9.28,0,0,1,9.29,9.28V810h51.84V704.43a9.28,9.28,0,0,1,9.28-9.28H444.3a9.27,9.27,0,0,1,9.28,9.28ZM405.44,628c-12.58,0-20.89-.47-22.17-.55a9.27,9.27,0,0,1-8.72-9.26V464.93a9.3,9.3,0,0,1,8.57-9.26c5.3-.4,130.3-9.39,180.34,37,13.94,12.9,21,28.86,21,47.42s-7.06,34.58-21,47.68C525.6,623.39,444.73,628,405.44,628Zm-21.61-9.81h0Zm9.29-8.94A492.57,492.57,0,0,0,452,607.14c46.71-4.65,80.88-16,98.82-32.93,10.18-9.58,15.12-20.75,15.12-34.15s-4.92-24.41-15-33.79c-17.9-16.6-52-27.44-98.73-31.36a491.69,491.69,0,0,0-59-1.18Zm19.93-203.62c-16.89,0-28.75-1.15-30.15-1.29a9.28,9.28,0,0,1-8.35-9.23V253.64a9.29,9.29,0,0,1,8.25-9.23c4.25-.48,104.6-11.23,149.78,29.15,14.57,13,21.95,29.82,21.95,49.91s-7.38,36.93-21.95,50.1C502.33,400.92,447.34,405.63,413.05,405.63Zm-19.93-19.17c24.22,1.34,94.82,2.46,127-26.68,10.65-9.63,15.83-21.51,15.83-36.31s-5.16-26.57-15.75-36.05c-15.81-14.14-44-22.91-81.38-25.35a354.16,354.16,0,0,0-45.72.11Z"/></svg>