<svg id="Слой_1" data-name="Слой 1" xmlns="http://www.w3.org/2000/svg" viewBox="0 0 879.76 879.76"><defs><style>.cls-1{fill:#1d1d1b;}</style></defs><title>icon_home_thin</title><path class="cls-1" d="M788.63,420.26a8.2,8.2,0,0,0-8.2,8.2V854.64H557.2V556.69a8.2,8.2,0,0,0-8.2-8.2H330.76a8.21,8.21,0,0,0-8.21,8.2V854.64H99.33V428.46a8.21,8.21,0,0,0-16.41,0V862.84a8.22,8.22,0,0,0,8.21,8.21H330.76a8.21,8.21,0,0,0,8.2-8.21V564.9H540.8V862.84a8.21,8.21,0,0,0,8.2,8.21H788.63a8.21,8.21,0,0,0,8.2-8.21V428.46A8.2,8.2,0,0,0,788.63,420.26Z"/><path class="cls-1" d="M868.74,378.17,445.26,9.71a8.2,8.2,0,0,0-10.77,0L11,378.17a8.2,8.2,0,0,0,10.77,12.38L439.88,26.77,858,390.55a8.2,8.2,0,0,0,10.77-12.38Z"/></svg>