<svg id="Слой_1" data-name="Слой 1" xmlns="http://www.w3.org/2000/svg" viewBox="0 0 159.16 153.04"><defs><style>.cls-1{fill:#1d1d1b;}</style></defs><title>import icons fill</title><path class="cls-1" d="M48.07,76.26a34.82,34.82,0,1,0,34.82,34.82A34.86,34.86,0,0,0,48.07,76.26Zm0,65.52a30.71,30.71,0,1,1,30.7-30.7A30.74,30.74,0,0,1,48.07,141.78Z"/><path class="cls-1" d="M64.72,109.54,50.13,124.13V92.89a2.06,2.06,0,0,0-4.12,0v31.24L31.42,109.54a2.06,2.06,0,0,0-2.91,2.91l18.1,18.1a2.6,2.6,0,0,0,.32.26l.15.08.2.11.21.06.18.05a1.75,1.75,0,0,0,.4,0,1.81,1.81,0,0,0,.4,0l.18-.05.21-.06.2-.11.15-.08a1.94,1.94,0,0,0,.31-.26l18.11-18.1a2.06,2.06,0,0,0-2.91-2.91Z"/><path class="cls-1" d="M143.49,36.63l-.07-.08a2.11,2.11,0,0,0-.19-.23h0L113.29,7.45l-.13-.1L113,7.22a.91.91,0,0,0-.17-.09l-.18-.1-.2-.06-.18,0a1.75,1.75,0,0,0-.4,0H64.44A10.58,10.58,0,0,0,53.88,17.44V71.37a2.06,2.06,0,1,0,4.11,0V17.44A6.46,6.46,0,0,1,64.44,11H109.3V30.35c0,5.54,4.45,9.56,10.56,9.56h19.87v80.85a6.45,6.45,0,0,1-6.45,6.44H83.6a2.06,2.06,0,1,0,0,4.12h49.68a10.58,10.58,0,0,0,10.57-10.56v-83A2.1,2.1,0,0,0,143.49,36.63Zm-23.63-.84c-3.2,0-6.44-1.68-6.44-5.44V13.29l23.33,22.5Z"/><path class="cls-1" d="M73.63,60.18h50.23a2.06,2.06,0,1,0,0-4.11H73.63a2.06,2.06,0,1,0,0,4.11Z"/><path class="cls-1" d="M73.63,80.82h50.23a2.06,2.06,0,0,0,0-4.12H73.63a2.06,2.06,0,0,0,0,4.12Z"/><path class="cls-1" d="M123.86,97.34H87.65a2.06,2.06,0,0,0,0,4.11h36.21a2.06,2.06,0,1,0,0-4.11Z"/></svg>