<?xml version="1.0" encoding="utf-8"?>
<!-- Generator: Adobe Illustrator 23.0.6, SVG Export Plug-In . SVG Version: 6.00 Build 0)  -->
<svg version="1.1" id="Слой_1" xmlns="http://www.w3.org/2000/svg" xmlns:xlink="http://www.w3.org/1999/xlink" x="0px" y="0px"
	 viewBox="0 0 1351.5 1366" style="enable-background:new 0 0 1351.5 1366;" xml:space="preserve">
<style type="text/css">
	.st0{fill:#1D1D1B;}
</style>
<title>icon_mobilewallet</title>
<path class="st0" d="M887.2,551.9c7.6-10,12-23.5,12-39.1c0-30.5-25.6-52.3-50.3-54.9v-20.5c0-9.1-7.3-16.4-16.4-16.4
	c-9.1,0-16.4,7.3-16.4,16.4v20.3h-28.2v-20.3c0-9.1-7.3-16.4-16.4-16.4c-9.1,0-16.4,7.3-16.4,16.4l0,0v20.3h-18
	c-9.1-0.2-16.6,6.9-16.8,16c-0.2,9.1,6.9,16.6,16,16.8c0.3,0,0.5,0,0.8,0h18v136.6h-18c-9.1-0.2-16.6,6.9-16.8,16
	c-0.2,9.1,6.9,16.6,16,16.8c0.3,0,0.5,0,0.8,0h18v23.9c-0.2,9.1,6.9,16.6,16,16.8c9.1,0.2,16.6-6.9,16.8-16c0-0.3,0-0.5,0-0.8v-23.9
	h28.2v23.9c0,9.1,7.3,16.4,16.4,16.4c9.1,0,16.4-7.3,16.4-16.4v-23.9h2.2c17.1,0,32.3-6.6,42.7-18.7c9.1-10.5,14.1-24.5,14.1-39.3
	C907.8,583.6,901.2,564.4,887.2,551.9z M844.1,490.4c7.6,0,22.4,7.9,22.4,22.4c0,24-15,25.2-18.1,25.2h-60.5v-47.6H844.1z
	 M851.1,627.1h-63.2v-56.2h60.4c9.2,0,15.9,3,20.4,9.2c4,5.5,6.3,13.5,6.3,21.9C875,604.5,874.3,627.1,851.1,627.1z"/>
<path class="st0" d="M1078.5,708.6c-36.1,0-71.5,10-102.2,28.9v-38.9c57.1-71.1,61.7-170.9,11.4-246.9v-147c0-7-4.7-13.1-11.4-15
	V148c0-32.5-26.4-58.8-58.8-58.8H396.4c-32.5,0.1-58.8,26.4-58.8,58.8v108.2c-6.7,1.9-11.4,8-11.4,14.9v110.7c0,7,4.6,13.1,11.4,15
	v30c-6.7,1.9-11.4,8-11.4,15v110.7c0,7,4.7,13.1,11.4,15v650.7c0,32.5,26.4,58.8,58.8,58.8h521.1c32.5,0,58.8-26.4,58.8-58.8v-148.3
	c30.7,19,66.1,29,102.1,29c107.6,0,195.1-87.5,195.1-195.1S1186,708.6,1078.5,708.6z M813.2,745.7c-39.6,0-78.1-13.2-109.4-37.5
	V426.9c31.3-24.3,69.8-37.5,109.4-37.5c98.3,0,178.2,79.9,178.2,178.2S911.5,745.7,813.2,745.7z M396.4,120.3h521.1
	c15.3,0,27.7,12.4,27.7,27.7v26.1H368.7V148C368.7,132.7,381.1,120.3,396.4,120.3z M917.5,1245.8H396.4c-15.3,0-27.7-12.4-27.7-27.7
	v-74.4h576.5v74.4C945.2,1233.4,932.8,1245.8,917.5,1245.8z M945.2,1112.5H368.7V205.1h576.5v199.9c-68.9-56-165.7-62.4-241.4-16
	v-53.1c-0.2-8.6-7.3-15.4-15.9-15.2c-8.3,0.2-15,6.9-15.2,15.2v466c-0.2,8.6,6.6,15.7,15.2,15.9c8.6,0.2,15.7-6.6,15.9-15.2
	c0-0.3,0-0.5,0-0.8V746c75.7,46.4,172.5,40,241.4-16v31.3c-78.6,73.4-82.8,196.6-9.4,275.3c3,3.2,6.2,6.4,9.4,9.4V1112.5z
	 M1078.5,1067.6c-90.4,0-163.9-73.6-163.9-163.9s73.6-163.9,163.9-163.9s163.9,73.6,163.9,163.9S1168.9,1067.6,1078.5,1067.6z"/>
<path class="st0" d="M1163.4,921.5c0-0.1,0.1-0.2,0.1-0.2c0.2-0.4,0.3-0.9,0.4-1.3c0-0.1,0.1-0.3,0.1-0.4c0.1-0.3,0.2-0.7,0.2-1
	c0-0.1,0.1-0.3,0.1-0.4c0.1-0.4,0.1-0.8,0.2-1.3c0-0.2,0-0.3,0-0.5s0-0.7,0-1c0-0.2,0-0.3,0-0.5c0-0.4,0-0.9-0.1-1.3
	c0-0.2,0-0.3-0.1-0.4c-0.1-0.4-0.1-0.8-0.2-1.2v-0.2c-0.1-0.5-0.2-1-0.4-1.4c0,0,0-0.1,0-0.2l-0.1-0.2c-0.2-0.5-0.3-0.9-0.5-1.4
	c0-0.1-0.1-0.1-0.1-0.2c-0.1-0.3-0.2-0.5-0.4-0.8l-69.4-133.5c-2.8-5.4-8.4-8.8-14.6-8.8l0,0c-6.2,0-11.8,3.5-14.6,8.9l-68.4,133.6
	c-0.1,0.2-0.2,0.4-0.3,0.6s-0.1,0.2-0.1,0.3c-0.2,0.5-0.4,0.9-0.5,1.4c0,0,0,0.1,0,0.1c0,0.1,0,0.1,0,0.2c-0.2,0.4-0.3,0.9-0.4,1.4
	c0,0,0,0.1,0,0.1c-0.1,0.5-0.2,0.9-0.2,1.4l-0.1,0.5c0,0.4-0.1,0.9-0.1,1.3c0,0.1,0,0.3,0,0.4c0,0.3,0,0.7,0,1c0,0.2,0,0.3,0,0.5
	c0,0.4,0.1,0.8,0.2,1.3c0,0.1,0,0.2,0.1,0.4c0.1,0.3,0.2,0.7,0.2,1c0,0.1,0.1,0.2,0.1,0.4c0.1,0.4,0.3,0.9,0.4,1.3l0.1,0.2
	c0.2,0.4,0.3,0.7,0.5,1.1l0.2,0.3c0.2,0.4,0.4,0.8,0.6,1.1l0.1,0.1l0,0l68.4,110.2c3,4.8,8.2,7.7,13.9,7.8l0,0
	c5.7,0,10.9-2.9,13.9-7.8l69.3-110.2l0,0V924c0.2-0.4,0.5-0.8,0.7-1.2l0.2-0.3C1163.1,922.2,1163.3,921.8,1163.4,921.5z M1079,817.6
	l45.8,88.1l-45.9,15l-45.1-14.8L1079,817.6z M1079,994.7l-30.8-49.6l25.6,8.4c3.3,1.1,6.9,1.1,10.2,0l26.3-8.6L1079,994.7z"/>
<path class="st0" d="M723.4,1208.4H579c-9.1-0.2-16.6,6.9-16.8,16c-0.2,9.1,6.9,16.6,16,16.8c0.3,0,0.5,0,0.8,0h144.5
	c9.1,0.2,16.6-6.9,16.8-16c0.2-9.1-6.9-16.6-16-16.8C724,1208.4,723.7,1208.4,723.4,1208.4z"/>
</svg>
