<svg id="Слой_1" data-name="Слой 1" xmlns="http://www.w3.org/2000/svg" viewBox="0 0 159.16 153.04"><defs><style>.cls-1{fill:#1d1d1b;}</style></defs><title>import icons fill</title><path class="cls-1" d="M137.82,77.93H96A10.14,10.14,0,0,0,85.89,88.05v28.14A10.15,10.15,0,0,0,96,126.32a2.7,2.7,0,0,0,0-5.4,4.73,4.73,0,0,1-4.73-4.73V88.05A4.73,4.73,0,0,1,96,83.33h41.8a4.73,4.73,0,0,1,4.72,4.72v28.14a4.73,4.73,0,0,1-4.72,4.73h-34a2.7,2.7,0,0,0,0,5.4h34a10.14,10.14,0,0,0,10.12-10.13V88.05A10.13,10.13,0,0,0,137.82,77.93Z"/><path class="cls-1" d="M123.21,102.12a12.58,12.58,0,1,0-12.57,12.31A12.46,12.46,0,0,0,123.21,102.12Zm-19.75,0a7.18,7.18,0,1,1,7.18,6.92A7.06,7.06,0,0,1,103.46,102.12Z"/><path class="cls-1" d="M104,60.68h18.29A11.75,11.75,0,0,1,134,72.42v1a2.7,2.7,0,0,0,5.4,0v-1a17.16,17.16,0,0,0-17.14-17.14H104a2.7,2.7,0,0,0,0,5.4Z"/><path class="cls-1" d="M136.73,128.08a2.69,2.69,0,0,0-2.7,2.69v1.06a11.76,11.76,0,0,1-11.74,11.74H28.38a11.76,11.76,0,0,1-11.74-11.74V72.42a11.79,11.79,0,0,1,4.84-9.48,2.7,2.7,0,1,0-3.18-4.36,17.21,17.21,0,0,0-7.06,13.84v59.41A17.15,17.15,0,0,0,28.38,149h93.91a17.15,17.15,0,0,0,17.14-17.13v-1.06A2.69,2.69,0,0,0,136.73,128.08Z"/><path class="cls-1" d="M61.78,83.5A39.79,39.79,0,1,0,22,43.71,39.84,39.84,0,0,0,61.78,83.5Zm0-74.18A34.4,34.4,0,1,1,27.39,43.71,34.43,34.43,0,0,1,61.78,9.32Z"/><path class="cls-1" d="M50.23,64.62a2.7,2.7,0,0,0,2.7-2.7V45.41a11.21,11.21,0,0,1,11.2-11.2h6.12L64.53,39.8a2.7,2.7,0,0,0,3.78,3.86L78.75,33.44l.06-.06.24-.29a.83.83,0,0,1,.08-.12,1.72,1.72,0,0,0,.2-.38l0,0a2.54,2.54,0,0,0,.13-.45l0-.14a1.87,1.87,0,0,0,0-.34.66.66,0,0,0,0-.14,1.72,1.72,0,0,0,0-.39.22.22,0,0,0,0-.08,2.2,2.2,0,0,0-.12-.44l-.06-.13a1.82,1.82,0,0,0-.16-.31L79.09,30a2.88,2.88,0,0,0-.27-.34l0,0h0L68.27,19a2.7,2.7,0,0,0-3.83,3.8l5.94,6H64.13a16.61,16.61,0,0,0-16.59,16.6V61.92A2.69,2.69,0,0,0,50.23,64.62Z"/></svg>