<svg id="Слой_1" data-name="Слой 1" xmlns="http://www.w3.org/2000/svg" viewBox="0 0 159.16 153.04"><defs><style>.cls-1{fill:#1d1d1b;}</style></defs><title>import icons fill</title><path class="cls-1" d="M22.37,81A2.05,2.05,0,0,0,24.43,79V55.72A12.36,12.36,0,0,1,36.77,43.38h91.67a12.35,12.35,0,0,1,12.34,12.34v2.73a2.06,2.06,0,1,0,4.12,0V55.72a16.47,16.47,0,0,0-16.46-16.45H36.77A16.47,16.47,0,0,0,20.32,55.72V79A2.05,2.05,0,0,0,22.37,81Z"/><path class="cls-1" d="M142.84,109a2.06,2.06,0,0,0-2.06,2.06v2.5a12.35,12.35,0,0,1-12.34,12.34H80.18a2.06,2.06,0,0,0,0,4.11h48.26a16.47,16.47,0,0,0,16.46-16.45v-2.5A2.06,2.06,0,0,0,142.84,109Z"/><path class="cls-1" d="M143.91,61.49h-41a9.35,9.35,0,0,0-9.34,9.34V98.44a9.35,9.35,0,0,0,9.34,9.34,2.06,2.06,0,1,0,0-4.11,5.23,5.23,0,0,1-5.23-5.23V70.83a5.23,5.23,0,0,1,5.23-5.23h41a5.24,5.24,0,0,1,5.23,5.23V98.44a5.24,5.24,0,0,1-5.23,5.23H110.53a2.06,2.06,0,1,0,0,4.11h33.38a9.35,9.35,0,0,0,9.34-9.34V70.83A9.35,9.35,0,0,0,143.91,61.49Z"/><path class="cls-1" d="M117.24,96.12A11.49,11.49,0,1,0,105.5,84.64,11.63,11.63,0,0,0,117.24,96.12Zm0-18.86a7.38,7.38,0,1,1-7.63,7.38A7.51,7.51,0,0,1,117.24,77.26Z"/><path class="cls-1" d="M60.62,37.55a2.19,2.19,0,0,0,.82-.17l52.81-23.07a3,3,0,0,1,3.89,1.53l8.93,20.44a2.06,2.06,0,1,0,3.77-1.64l-8.93-20.45a7.06,7.06,0,0,0-9-3.76L108.05,4.7a7.07,7.07,0,0,0-10-.82l-31,26.24a1.91,1.91,0,0,0-.39.46l-6.94,3a2.06,2.06,0,0,0,.83,3.94ZM100.75,7a3,3,0,0,1,4.16.34l4,4.77L79.55,25Z"/><path class="cls-1" d="M40.73,81.68A34.82,34.82,0,1,0,75.55,116.5,34.86,34.86,0,0,0,40.73,81.68Zm0,65.53a30.71,30.71,0,1,1,30.7-30.71A30.75,30.75,0,0,1,40.73,147.21Z"/><path class="cls-1" d="M58.83,114.53h-16v-16a2.06,2.06,0,0,0-4.12,0v16h-16a2.06,2.06,0,1,0,0,4.11h16v16a2.06,2.06,0,0,0,4.12,0v-16h16a2.06,2.06,0,1,0,0-4.11Z"/></svg>