<svg id="Слой_1" data-name="Слой 1" xmlns="http://www.w3.org/2000/svg" viewBox="0 0 159.16 153.04"><defs><style>.cls-1{fill:#1d1d1b;}</style></defs><title>import icons fill</title><path class="cls-1" d="M79.13,87.54A34.82,34.82,0,1,0,44.31,52.72,34.86,34.86,0,0,0,79.13,87.54Zm0-65.53A30.71,30.71,0,1,1,48.42,52.72,30.74,30.74,0,0,1,79.13,22Z"/><path class="cls-1" d="M77.67,72.19a2.51,2.51,0,0,0,.31.26l.09,0a2.29,2.29,0,0,0,.27.14l.13,0,.25.08a2.71,2.71,0,0,0,.41,0,2.58,2.58,0,0,0,.4,0l.26-.08.13,0,.26-.14.09,0a1.94,1.94,0,0,0,.31-.26l18.11-18.1a2.06,2.06,0,0,0-2.91-2.91L81.18,65.77V34.53a2.06,2.06,0,0,0-4.11,0V65.77L62.48,51.18a2.06,2.06,0,0,0-2.91,2.91Z"/><path class="cls-1" d="M126.18,46.41h-7.26a2.06,2.06,0,1,0,0,4.11h7.26a11,11,0,0,1,11,11V122a11,11,0,0,1-11,11H32.08a11,11,0,0,1-11-11V61.52a11,11,0,0,1,11-11h6.74a2.06,2.06,0,0,0,0-4.11H32.08A15.12,15.12,0,0,0,17,61.52V122a15.12,15.12,0,0,0,15.11,15.11h94.1A15.13,15.13,0,0,0,141.29,122V61.52A15.13,15.13,0,0,0,126.18,46.41Z"/></svg>