<svg id="Слой_1" data-name="Слой 1" xmlns="http://www.w3.org/2000/svg" viewBox="0 0 159.16 153.04"><defs><style>.cls-1{fill:#1d1d1b;}</style></defs><title>import icons fill</title><path class="cls-1" d="M71.14,76.18H41.21a2.06,2.06,0,1,0,0,4.11H71.14a3.13,3.13,0,0,1,3.13,3.13v29.19a2.06,2.06,0,0,0,4.11,0V83.42A7.24,7.24,0,0,0,71.14,76.18Z"/><path class="cls-1" d="M37.1,54.22h36A7.25,7.25,0,0,0,80.35,47V11a7.25,7.25,0,0,0-7.24-7.24h-36A7.25,7.25,0,0,0,29.85,11V47A7.25,7.25,0,0,0,37.1,54.22ZM34,11A3.13,3.13,0,0,1,37.1,7.84h36A3.13,3.13,0,0,1,76.24,11V47a3.13,3.13,0,0,1-3.13,3.13h-36A3.13,3.13,0,0,1,34,47Z"/><path class="cls-1" d="M145.66,3.72h-36A7.25,7.25,0,0,0,102.4,11V47a7.25,7.25,0,0,0,7.24,7.24h36A7.25,7.25,0,0,0,152.9,47V11A7.25,7.25,0,0,0,145.66,3.72ZM148.79,47a3.13,3.13,0,0,1-3.13,3.13h-36A3.13,3.13,0,0,1,106.52,47V11a3.12,3.12,0,0,1,3.12-3.12h36A3.13,3.13,0,0,1,148.79,11Z"/><path class="cls-1" d="M33,63.14a2.06,2.06,0,1,0,0,4.11H48.7a2.06,2.06,0,1,0,0-4.11Z"/><path class="cls-1" d="M102.4,106a2.05,2.05,0,0,0,2.06,2.05h44.16a2.05,2.05,0,0,0,2.06-2.05V79.8a2.06,2.06,0,1,0-4.11,0v24.1H104.46A2.06,2.06,0,0,0,102.4,106Z"/><path class="cls-1" d="M149.54,118.14H120.29a2.06,2.06,0,1,0,0,4.11h29.25a2.06,2.06,0,1,0,0-4.11Z"/><path class="cls-1" d="M78.87,63.34H58.65a2.06,2.06,0,0,0,0,4.12H78.87a2.06,2.06,0,0,0,0-4.12Z"/><path class="cls-1" d="M90.7,27.48a2.06,2.06,0,0,0,2.06-2.06V5.78a2.06,2.06,0,0,0-4.12,0V25.42A2.06,2.06,0,0,0,90.7,27.48Z"/><path class="cls-1" d="M133.07,76.27H90.7a2.06,2.06,0,1,0,0,4.11H131v12a2.06,2.06,0,1,0,4.12,0V78.33A2.06,2.06,0,0,0,133.07,76.27Z"/><path class="cls-1" d="M105.86,118.14h0l-13.09.06V94.13h24.63a2.06,2.06,0,1,0,0-4.12H90.7a2.06,2.06,0,0,0-2.06,2.06v28.19a2.07,2.07,0,0,0,2.06,2.06h0l15.16-.07a2.06,2.06,0,0,0,0-4.11Z"/><path class="cls-1" d="M149.57,63.75,92.76,63V36.31a2.06,2.06,0,0,0-4.12,0V64.46a2.06,2.06,0,0,0,0,.26,2,2,0,0,0,0,.24,2.07,2.07,0,0,0,2,2.09l58.84.82h0a2.06,2.06,0,0,0,0-4.12Z"/><path class="cls-1" d="M47.14,41.29H63.07a4.35,4.35,0,0,0,4.35-4.35V21a4.35,4.35,0,0,0-4.35-4.35H47.14A4.35,4.35,0,0,0,42.79,21V36.94A4.35,4.35,0,0,0,47.14,41.29ZM46.9,21a.24.24,0,0,1,.24-.24H63.07a.24.24,0,0,1,.24.24V36.94a.25.25,0,0,1-.24.24H47.14a.25.25,0,0,1-.24-.24Z"/><path class="cls-1" d="M65.36,102.87a2.06,2.06,0,0,0,2.06-2.06V92a4.36,4.36,0,0,0-4.35-4.35h-9a2.06,2.06,0,0,0,0,4.12h9a.24.24,0,0,1,.24.23v8.77A2.05,2.05,0,0,0,65.36,102.87Z"/><path class="cls-1" d="M135.62,16.66H119.69A4.35,4.35,0,0,0,115.34,21V36.94a4.35,4.35,0,0,0,4.35,4.35h15.93A4.35,4.35,0,0,0,140,36.94V21A4.35,4.35,0,0,0,135.62,16.66Zm.24,20.28a.25.25,0,0,1-.24.24H119.69a.25.25,0,0,1-.24-.24V21a.24.24,0,0,1,.24-.24h15.93a.24.24,0,0,1,.24.24Z"/><path class="cls-1" d="M61.18,110.56a2.06,2.06,0,0,0-2.91,2.91l10.07,10.07a12.7,12.7,0,0,1-18,18L33,124.15a12.69,12.69,0,0,1,5.11-21.07,2.06,2.06,0,1,0-1.24-3.92,16.84,16.84,0,0,0-6.78,27.9l17.36,17.35a16.82,16.82,0,0,0,23.78-23.78Z"/><path class="cls-1" d="M10.84,101.55a12.75,12.75,0,0,1,0-18,12.73,12.73,0,0,1,18,0l17.35,17.35a12.68,12.68,0,0,1-5,21,2.06,2.06,0,0,0,1.28,3.91A16.84,16.84,0,0,0,49.07,98L31.71,80.68A16.82,16.82,0,0,0,7.93,104.46L18.6,115.13a2.06,2.06,0,0,0,2.91-2.91Z"/></svg>