<svg id="Слой_1" data-name="Слой 1" xmlns="http://www.w3.org/2000/svg" viewBox="0 0 879.76 879.76"><defs><style>.cls-1{fill:#1d1d1b;}</style></defs><title>icon_eth</title><path class="cls-1" d="M443.36,548.21a9.06,9.06,0,0,1-3.65-.77L236.78,458.75a9.12,9.12,0,0,1-4.44-12.57L436,55.37a9.11,9.11,0,0,1,16.17,0L655.75,446.18a9.11,9.11,0,0,1-4.46,12.58L447,547.45A9.2,9.2,0,0,1,443.36,548.21ZM253,446l190.35,83.2,191.69-83.22-191-366.62Z"/><path class="cls-1" d="M446.54,828.57a9.12,9.12,0,0,1-7.71-4.26L250.2,524.5a9.12,9.12,0,0,1,11.42-13.19l181.8,80.83,188.15-80.87a9.12,9.12,0,0,1,11.32,13.23L454.26,824.31A9.12,9.12,0,0,1,446.54,828.57Zm-165-288.43,165,262.19L611.85,539.59,447,610.47a9.16,9.16,0,0,1-7.31-.05Z"/></svg>