<svg id="eWG5IFOEmXM1" xmlns="http://www.w3.org/2000/svg" xmlns:xlink="http://www.w3.org/1999/xlink" viewBox="0 0 375 812" shape-rendering="geometricPrecision" text-rendering="geometricPrecision">
<style><![CDATA[
#eWG5IFOEmXM16 {animation: eWG5IFOEmXM16_c_o 10000ms linear infinite normal forwards}@keyframes eWG5IFOEmXM16_c_o { 0% {opacity: 1} 6% {opacity: 1} 8% {opacity: 0} 10% {opacity: 1} 21% {opacity: 1} 23% {opacity: 0} 25% {opacity: 1} 39% {opacity: 1} 41% {opacity: 0} 43% {opacity: 1} 67% {opacity: 1} 69% {opacity: 0} 71% {opacity: 1} 90% {opacity: 1} 92% {opacity: 0} 94% {opacity: 1} 100% {opacity: 1}} #eWG5IFOEmXM23 {animation: eWG5IFOEmXM23_c_o 10000ms linear infinite normal forwards}@keyframes eWG5IFOEmXM23_c_o { 0% {opacity: 1} 15% {opacity: 1} 17% {opacity: 0} 19% {opacity: 1} 31% {opacity: 1} 33% {opacity: 0} 35% {opacity: 1} 54% {opacity: 1} 56% {opacity: 0} 58% {opacity: 1} 79% {opacity: 1} 81% {opacity: 0} 83% {opacity: 1} 95% {opacity: 1} 97% {opacity: 0} 99% {opacity: 1} 100% {opacity: 1}} #eWG5IFOEmXM42 {animation: eWG5IFOEmXM42_c_o 10000ms linear infinite normal forwards}@keyframes eWG5IFOEmXM42_c_o { 0% {opacity: 1} 4% {opacity: 1} 6% {opacity: 0} 8% {opacity: 1} 24% {opacity: 1} 26% {opacity: 0} 28% {opacity: 1} 37% {opacity: 1} 39% {opacity: 0} 41% {opacity: 1} 62% {opacity: 1} 64% {opacity: 0} 66% {opacity: 1} 85% {opacity: 1} 87% {opacity: 0} 89% {opacity: 1} 100% {opacity: 1}} #eWG5IFOEmXM46_to {animation: eWG5IFOEmXM46_to__to 10000ms linear infinite normal forwards}@keyframes eWG5IFOEmXM46_to__to { 0% {transform: translate(321px,719px)} 28% {transform: translate(49px,481px)} 56% {transform: translate(194px,65.001706px)} 100% {transform: translate(321px,719px)}}
]]></style>
<g><rect width="375" height="812" rx="0" ry="0" fill="#e7fe8a"/><rect width="375" height="812" rx="0" ry="0" fill="#252926"/><path d="M37.7856,189.294v-2.591h-2.5905v2.591h2.5905Z" fill="#e0ede2"/><path d="M149.468,81.5826h2.591v-1.9003h-2.591v1.9003Z" fill="#0652ea"/><path d="M101.485,125.505h2.591v-1.9h-2.591v1.9Z" fill="#0652ea"/><path d="M39.7198,138.981h2.5905v-1.9h-2.5905v1.9Z" fill="#0652ea"/><path d="M290.151,39.0332h2.591v-1.9003h-2.591v1.9003Z" fill="#0652ea"/><path d="M14.0791,285.373h-2.5906v1.901h2.5906v-1.901Z" fill="#0652ea"/><path d="M58.9786,428.483h2.5905v-1.901h-2.5905v1.901Z" fill="#0652ea"/><path d="M35.2038,357.201h-2.5905v1.9h2.5905v-1.9Z" fill="#0652ea"/><path d="M33.3261,302.164h-2.5905v1.9h2.5905v-1.9Z" fill="#0652ea"/><path d="M196.319,241.428h-2.591v1.9h2.591v-1.9Z" fill="#0652ea"/><path d="M143.381,134.835h-2.59v1.9h2.59v-1.9Z" fill="#0652ea"/><path id="eWG5IFOEmXM16" d="M153.489,188.74h-2.591v1.9h2.591v-1.9Z" transform="matrix(1.5 0 0 1.5-76.096749-94.845001)" fill="#e1ede3"/><path d="M180.441,159.541h-2.591v1.901h2.591v-1.901Z" fill="#0652ea"/><path d="M29.7414,47.812h-2.5905v1.9003h2.5905v-1.9003Z" fill="#0652ea"/><path d="M40.3933,746.725v2.591h1.9003v-2.591h-1.9003Z" fill="#0652ea"/><path d="M216.033,424.572v2.591h1.9v-2.591h-1.9Z" fill="#0652ea"/><path d="M196.839,640.727v-2.591h-1.901v2.591h1.901Z" fill="#0652ea"/><path d="M217.938,650.467v-2.591h-1.901v2.591h1.901Z" fill="#0652ea"/><path id="eWG5IFOEmXM23" d="M181.969,682.124v-2.59h-1.901v2.59h1.901Z" transform="matrix(1.5 0 0 1.5-90.509247-340.414505)" fill="#e1ede3"/><path d="M7.84131,463.336v2.59h1.90029v-2.59h-1.90029Z" fill="#0652ea"/><path d="M19.5073,649.172v2.59h1.9003v-2.59h-1.9003Z" fill="#0652ea"/><path d="M10.0142,576.552v2.59h1.9003v-2.59h-1.9003Z" fill="#0652ea"/><path d="M91.3782,524.52v2.591h1.9003v-2.591h-1.9003Z" fill="#0652ea"/><path d="M276.259,176.963v-2.59h-2.591v2.59h2.591Z" fill="#e0ede2"/><path d="M113.06,475.452v-2.59h-2.59v2.59h2.59Z" fill="#e0ede2"/><path d="M125.413,505.774v-2.591h-2.59v2.591h2.59Z" fill="#e0ede2"/><path d="M241.083,207.052v-2.59h-2.59v2.59h2.59Z" fill="#e0ede2"/><path d="M341.031,295.77v-2.59h-2.59v2.59h2.59Z" fill="#e0ede2"/><path d="M376.968,693.317v-2.591h-2.591v2.591h2.591Z" fill="#e0ede2"/><path d="M252.552,273.043h-2.59v1.9h2.59v-1.9Z" fill="#0652ea"/><path d="M354.508,248.259h-2.591v1.901h2.591v-1.901Z" fill="#0652ea"/><path d="M314.097,344.862h-2.591v1.9h2.591v-1.9Z" fill="#0652ea"/><path d="M268.215,35.4813h-2.591v1.9003h2.591v-1.9003Z" fill="#0652ea"/><path d="M279.266,16.9186h-2.591v1.9003h2.591v-1.9003Z" fill="#0652ea"/><path d="M278.866,734.386v2.591h1.901v-2.591h-1.901Z" fill="#0652ea"/><path d="M349.671,692.972v2.591h1.9v-2.591h-1.9Z" fill="#0652ea"/><path d="M360.901,666.02v2.591h1.901v-2.591h-1.901Z" fill="#0652ea"/><path id="eWG5IFOEmXM42" d="M246.314,451.005v2.591h1.901v-2.591h-1.901Z" transform="matrix(1.5 0 0 1.5-123.632248-226.150254)" fill="#e1ede3"/><path d="M257.98,636.841v2.591h1.901v-2.591h-1.901Z" fill="#0652ea"/><path d="M248.487,564.221v2.591h1.901v-2.591h-1.901Z" fill="#0652ea"/><path d="M366.516,504.306v2.591h1.901v-2.591h-1.901Z" fill="#0652ea"/><g id="eWG5IFOEmXM46_to" transform="translate(321,719)"><g transform="translate(-303.501495,-576.968506)"><path d="M326.255,557.702h-45.515v45.235h45.515v-45.235Z" fill="#ffc47e"/><path d="M280.743,569.429h-6.743v20.105h6.743v-20.105Z" fill="#ab87f8"/><path d="M333.003,569.429h-6.743v20.105h6.743v-20.105Z" fill="#ffc47e"/><path d="M280.743,551h-6.743v6.702h6.743v-6.702Z" fill="#ab87f8"/><path d="M333.003,551h-6.743v6.702h6.743v-6.702Z" fill="#ffc47e"/><path d="M326.257,557.702h-22.757v45.235h22.757v-45.235Z" fill="#ab87f8"/><path d="M320.363,569.429v4.189h-15.171v-4.189h15.171Z" fill="#fff"/><path d="M301.822,569.429v4.189h-15.172v-4.189h15.172Z" fill="#fff"/><path d="M317.833,573.618v3.35h-10.115v-3.35h10.115Z" fill="#b9fdff"/><path d="M299.291,573.618v3.35h-10.115v-3.35h10.115Z" fill="#b9fdff"/><g style="mix-blend-mode:multiply"><path d="M309.405,569.429v4.189h-4.214v-4.189h4.214Z"/></g><g style="mix-blend-mode:multiply"><path d="M290.863,569.429v4.189h-4.214v-4.189h4.214Z"/></g><path d="M312.78,585.345v4.189h-18.543v-4.189h18.543Z" fill="#ff4141"/><path d="M294.238,581.995v3.35h-3.372v-3.35h3.372Z" fill="#ff4141"/><path d="M316.145,581.995v3.35h-3.371v-3.35h3.371Z" fill="#ff4141"/></g></g><path d="M246.812,406h-3.002c-12.803,0-23.188-10.431-23.188-23.29v-2.445c0-12.859,10.385-23.289,23.188-23.289h3.002c12.981,0,23.188,10.365,23.188,23.289v2.445c0,12.859-10.401,23.29-23.188,23.29ZM124.949,369.672c-2.726,0-4.933,2.216-4.933,4.954v22.589c0,2.135-.844,4.173-2.353,5.688-1.509,1.516-3.537,2.364-5.663,2.364-4.43,0-8-3.602-8-8.035v-23.013-24.219c0-2.135.844-4.172,2.353-5.688s3.537-2.363,5.663-2.363s4.154.847,5.663,2.363s2.353,3.553,2.353,5.688v7.008c.373-.032.763-.032,1.152-.032h10.629c9.476,0,17.168,7.725,17.168,17.243v23.013c0,4.449-3.586,8.035-8,8.035-2.126,0-4.154-.848-5.663-2.364-1.509-1.515-2.353-3.553-2.353-5.688v-22.572c0-2.738-2.207-4.955-4.933-4.955h-3.083v-.016Zm84.184,22.898c3.489,0,6.329,2.836,6.329,6.357c0,3.504-2.824,6.356-6.329,6.356h-6.377c-9.476,0-17.168-7.725-17.168-17.243v-19.786-11.833c0-2.135.844-4.172,2.353-5.688c1.509-1.515,3.538-2.363,5.663-2.363c2.126,0,4.154.848,5.663,2.363c1.51,1.516,2.353,3.553,2.353,5.688v5.672c.374-.032.763-.032,1.152-.032h6.378c3.488,0,6.328,2.835,6.328,6.356c0,3.504-2.823,6.356-6.328,6.356h-2.597c-2.726,0-4.933,2.217-4.933,4.955v7.888c0,2.738,2.207,4.954,4.933,4.954h2.58Zm-33.849-27.445c0-4.433-3.586-8.035-8-8.035-4.413,0-7.999,3.602-7.999,8.035v32.058c0,4.433,3.586,8.035,7.999,8.035c4.414,0,8-3.602,8-8.035v-32.058Zm78.327,12.891c0-4.596-3.716-8.328-8.292-8.328s-8.292,3.732-8.292,8.328v6.976c0,4.596,3.716,8.328,8.292,8.328s8.292-3.732,8.292-8.328v-6.976ZM167.268,336c4.82,0,8.746,3.928,8.746,8.785c0,4.856-3.91,8.784-8.746,8.784-4.819,0-8.746-3.928-8.746-8.784c0-4.857,3.927-8.785,8.746-8.785Z" clip-rule="evenodd" fill="#e1ede3" fill-rule="evenodd"/></g></svg>
