<svg id="exU1a5fsBQp1" xmlns="http://www.w3.org/2000/svg" xmlns:xlink="http://www.w3.org/1999/xlink" viewBox="0 0 228 17" shape-rendering="geometricPrecision" text-rendering="geometricPrecision">
<style><![CDATA[
#exU1a5fsBQp2 {animation: exU1a5fsBQp2_c_o 8600ms linear 1 normal forwards}@keyframes exU1a5fsBQp2_c_o { 0% {opacity: 0} 4.651163% {opacity: 0} 6.976744% {opacity: 1} 100% {opacity: 1}} #exU1a5fsBQp3 {animation: exU1a5fsBQp3_c_o 8600ms linear 1 normal forwards}@keyframes exU1a5fsBQp3_c_o { 0% {opacity: 0} 6.976744% {opacity: 0} 11.627907% {opacity: 0} 13.953488% {opacity: 1} 100% {opacity: 1}} #exU1a5fsBQp4 {animation: exU1a5fsBQp4_c_o 8600ms linear 1 normal forwards}@keyframes exU1a5fsBQp4_c_o { 0% {opacity: 0} 13.953488% {opacity: 0} 18.604651% {opacity: 0} 20.930233% {opacity: 1} 100% {opacity: 1}} #exU1a5fsBQp5 {animation: exU1a5fsBQp5_c_o 8600ms linear 1 normal forwards}@keyframes exU1a5fsBQp5_c_o { 0% {opacity: 0} 20.930233% {opacity: 0} 25.581395% {opacity: 0} 27.906977% {opacity: 1} 100% {opacity: 1}} #exU1a5fsBQp6 {animation: exU1a5fsBQp6_c_o 8600ms linear 1 normal forwards}@keyframes exU1a5fsBQp6_c_o { 0% {opacity: 0} 27.906977% {opacity: 0} 32.325581% {opacity: 0} 34.883721% {opacity: 1} 100% {opacity: 1}} #exU1a5fsBQp7 {animation: exU1a5fsBQp7_c_o 8600ms linear 1 normal forwards}@keyframes exU1a5fsBQp7_c_o { 0% {opacity: 0} 34.883721% {opacity: 0} 39.534884% {opacity: 0} 41.860465% {opacity: 1} 100% {opacity: 1}} #exU1a5fsBQp8 {animation: exU1a5fsBQp8_c_o 8600ms linear 1 normal forwards}@keyframes exU1a5fsBQp8_c_o { 0% {opacity: 0} 41.860465% {opacity: 0} 46.511628% {opacity: 0} 48.837209% {opacity: 1} 100% {opacity: 1}} #exU1a5fsBQp9 {animation: exU1a5fsBQp9_c_o 8600ms linear 1 normal forwards}@keyframes exU1a5fsBQp9_c_o { 0% {opacity: 0} 48.837209% {opacity: 0} 53.488372% {opacity: 0} 55.813953% {opacity: 1} 100% {opacity: 1}} #exU1a5fsBQp10 {animation: exU1a5fsBQp10_c_o 8600ms linear 1 normal forwards}@keyframes exU1a5fsBQp10_c_o { 0% {opacity: 0} 55.813953% {opacity: 0} 60.465116% {opacity: 0} 62.790698% {opacity: 1} 100% {opacity: 1}} #exU1a5fsBQp11 {animation: exU1a5fsBQp11_c_o 8600ms linear 1 normal forwards}@keyframes exU1a5fsBQp11_c_o { 0% {opacity: 0} 62.790698% {opacity: 0} 67.44186% {opacity: 0} 69.767442% {opacity: 1} 100% {opacity: 1}} #exU1a5fsBQp12 {animation: exU1a5fsBQp12_c_o 8600ms linear 1 normal forwards}@keyframes exU1a5fsBQp12_c_o { 0% {opacity: 0} 69.767442% {opacity: 0} 74.418605% {opacity: 0} 76.744186% {opacity: 1} 100% {opacity: 1}} #exU1a5fsBQp13 {animation: exU1a5fsBQp13_c_o 8600ms linear 1 normal forwards}@keyframes exU1a5fsBQp13_c_o { 0% {opacity: 0} 76.744186% {opacity: 0} 81.395349% {opacity: 0} 83.72093% {opacity: 1} 100% {opacity: 1}} #exU1a5fsBQp14 {animation: exU1a5fsBQp14_c_o 8600ms linear 1 normal forwards}@keyframes exU1a5fsBQp14_c_o { 0% {opacity: 0} 83.72093% {opacity: 0} 88.372093% {opacity: 0} 90.697674% {opacity: 1} 100% {opacity: 1}} #exU1a5fsBQp15 {animation: exU1a5fsBQp15_c_o 8600ms linear 1 normal forwards}@keyframes exU1a5fsBQp15_c_o { 0% {opacity: 0} 90.697674% {opacity: 0} 95.348837% {opacity: 0} 97.674419% {opacity: 1} 100% {opacity: 1}}
]]></style>
<path id="exU1a5fsBQp2" d="M16.7932,0.601578h-16.147326v16.167522h16.147326v-16.167522Z" opacity="0" fill="#00ffc2"/><path id="exU1a5fsBQp3" d="M32.9405,0.601578h-16.1473v16.167522h16.1473v-16.167522Z" opacity="0" fill="#e6ff83"/><path id="exU1a5fsBQp4" d="M49.0879,0.601578h-16.1473v16.167522h16.1473v-16.167522Z" opacity="0" fill="#b2b0ff"/><path id="exU1a5fsBQp5" d="M65.2351,0.601578h-16.1473v16.167522h16.1473v-16.167522Z" transform="matrix(1.000001 0 0 1-.000057 0.2309)" opacity="0" fill="#ffa9bf"/><path id="exU1a5fsBQp6" d="M81.3824,0.601578h-16.1473v16.167522h16.1473v-16.167522Z" transform="matrix(1.040006 0 0 1-2.60979 0.2309)" opacity="0" fill="#c2ff5d"/><path id="exU1a5fsBQp7" d="M97.5298,0.601578h-16.1474v16.167522h16.1474v-16.167522Z" transform="translate(.323 0.2309)" opacity="0" fill="#fcff5d"/><path id="exU1a5fsBQp8" d="M113.677,0.601578h-16.1472v16.167522h16.1472v-16.167522Z" transform="translate(.323 0)" opacity="0" fill="#ffba93"/><path id="exU1a5fsBQp9" d="M129.824,0.601578h-16.147v16.167522h16.147v-16.167522Z" opacity="0" fill="#00ffc2"/><path id="exU1a5fsBQp10" d="M146.618,0.601578h-16.794v16.167522h16.794v-16.167522Z" opacity="0" fill="#e6ff83"/><path id="exU1a5fsBQp11" d="M162.765,0.601578h-16.147v16.167522h16.147v-16.167522Z" opacity="0" fill="#51fff4"/><path id="exU1a5fsBQp12" d="M178.912,0.601578h-16.147v16.167522h16.147v-16.167522Z" opacity="0" fill="#ffa9bf"/><path id="exU1a5fsBQp13" d="M81.3824,0.601578h-16.1473v16.167522h16.1473v-16.167522Z" transform="translate(113.6769 0)" opacity="0" fill="#c2ff5d"/><path id="exU1a5fsBQp14" d="M97.5298,0.601578h-16.1474v16.167522h16.1474v-16.167522Z" transform="translate(113.6769 0)" opacity="0" fill="#fcff5d"/><path id="exU1a5fsBQp15" d="M113.677,0.601578h-16.1472v16.167522h16.1472v-16.167522Z" transform="translate(113.6769 0)" opacity="0" fill="#ffba93"/><path d="M227.134,0.822451v15.355049h-226.26838v-15.355049h226.26838ZM227.134,0L0.86562,0c-.229577,0-.449896.086512-.612232.240752s-.253388.363572-.253388.581699L0,16.1775c0,.2182.091053.4273.253388.5815s.382655.241.612232.241h226.26838c.23,0,.45-.0867.612-.241.163-.1542.254-.3633.254-.5815v-15.355049c0-.218127-.091-.42746-.254-.581699C227.584,0.086512,227.364,0,227.134,0Z" fill="#fff"/></svg>
